<mxfile host="65bd71144e">
    <diagram id="U-SrKq1gWjLW5zMQ7t7E" name="第 1 页">
        <mxGraphModel dx="1565" dy="605" grid="1" gridSize="10" guides="1" tooltips="1" connect="1" arrows="1" fold="1" page="1" pageScale="1" pageWidth="827" pageHeight="1169" math="0" shadow="0">
            <root>
                <mxCell id="0"/>
                <mxCell id="1" parent="0"/>
                <mxCell id="4" value="" style="edgeStyle=none;html=1;" parent="1" source="2" target="3" edge="1">
                    <mxGeometry relative="1" as="geometry"/>
                </mxCell>
                <mxCell id="2" value="FileUtil&lt;br&gt;最底层的文件类" style="rounded=1;whiteSpace=wrap;html=1;arcSize=50;" parent="1" vertex="1">
                    <mxGeometry x="60" y="270" width="120" height="60" as="geometry"/>
                </mxCell>
                <mxCell id="6" value="" style="edgeStyle=none;html=1;" parent="1" source="3" target="5" edge="1">
                    <mxGeometry relative="1" as="geometry"/>
                </mxCell>
                <mxCell id="3" value="LogFile&lt;br&gt;进一步封装FileUtil" style="whiteSpace=wrap;html=1;rounded=1;arcSize=50;" parent="1" vertex="1">
                    <mxGeometry x="250" y="270" width="120" height="60" as="geometry"/>
                </mxCell>
                <mxCell id="5" value="Logstream" style="whiteSpace=wrap;html=1;rounded=1;arcSize=50;" parent="1" vertex="1">
                    <mxGeometry x="440" y="270" width="180" height="60" as="geometry"/>
                </mxCell>
                <mxCell id="11" value="" style="edgeStyle=none;html=1;" parent="1" source="7" target="10" edge="1">
                    <mxGeometry relative="1" as="geometry"/>
                </mxCell>
                <mxCell id="7" value="&lt;span&gt;AsyncLogging&lt;/span&gt;&lt;br&gt;&lt;span&gt;实现异步日志，采用双缓冲技术&lt;/span&gt;" style="whiteSpace=wrap;html=1;rounded=1;arcSize=50;" parent="1" vertex="1">
                    <mxGeometry x="450" y="440" width="190" height="60" as="geometry"/>
                </mxCell>
                <mxCell id="10" value="Logging&lt;br&gt;对外封装" style="whiteSpace=wrap;html=1;rounded=1;arcSize=50;" parent="1" vertex="1">
                    <mxGeometry x="270" y="440" width="120" height="60" as="geometry"/>
                </mxCell>
                <mxCell id="12" value="" style="curved=1;endArrow=classic;html=1;exitX=1;exitY=0.5;exitDx=0;exitDy=0;entryX=1;entryY=0.5;entryDx=0;entryDy=0;" parent="1" source="5" target="7" edge="1">
                    <mxGeometry width="50" height="50" relative="1" as="geometry">
                        <mxPoint x="640" y="390" as="sourcePoint"/>
                        <mxPoint x="690" y="340" as="targetPoint"/>
                        <Array as="points">
                            <mxPoint x="720" y="350"/>
                            <mxPoint x="710" y="420"/>
                        </Array>
                    </mxGeometry>
                </mxCell>
                <mxCell id="13" value="" style="shape=image;verticalLabelPosition=bottom;labelBackgroundColor=#ffffff;verticalAlign=top;aspect=fixed;imageAspect=0;image=data:image/png,iVBORw0KGgoAAAANSUhEUgAAAt8AAADjCAIAAADST+9sAAAgAElEQVR4Aex9d3Bc13W3ZcmSkzijseWJE8uR7XHGjqOJ5XFPMrYj57MVKR5p5LFkWZUiJYuiKFYRAAGiFwIgQBAAASwWWJRFb4uyaIveey+LRVn07b134JvgZ5/vfQsQoiVKosl9f5AXb1+599zfOed3zz33vk/t+g6fBHwS8EnAJwGfBHwS8EngdpLAp26nyvjq4pOATwI+Cfgk4JOATwI+Cez62IkPBD4J+CTgk4BPAj4J+CRwe0ngNmUner3ebDY7HA6bzabVam02m8PhsNvtZrPZaDQ6fMcdIQG73W7bO+x2OxqEM9a9w+FwWCwWwGBnZ8dms7n2DrfbvXPXHx6Px+Vy7ezsOP90uPcOi8UCTSHB2hnHHYGaW9AIhki8i1ar1WAw6HQ6h8NhMBhsNpvVaoX9sVqtbrfbwzjuWhiSE4MEIBKr1WoymdA9Op0OUIQW6/V60vFb0H++R3yiEiDbglowjTbUyWq1WiwWl8tlsVgIKh+gcJuyE4/HYzabRSJRc3Nz05+OxsbGhoaGxsZGvu+4UyRQW1tbt3egQSjX1tbW1NTU19c3Nzd3dHTMz8/v7OzAHzscDnjlu9YxoOFut9vpdIKdgK45HA6pVFpXV9fS0tLQ0ECChUiZQr5TsPPB28GUiVe5ce+or69va2traGgQCAQtLS09PT0rKysMWvLH4l0LQvI0THbi8XisVuvGxsaBRru+vv6Dd5jvzttJAmRbUCloEIx2XV1dY2Nje3v7yMiIy+XyeDwElQ9QuE3Zid1ul0qlfD4/MjKyrKystLQU/5aWllZWVpb7jjtCAtSzZWVl5eXlZX86SktLS0pKysvLS0pKOBxORUWFzWZzu90g6fDKd61jIHbicDjcbrfVakXBZDLNzc0FBwfn5+f/SZD/+78XUioqKrzO3IV/MuXjVS4tLS0uLi4tLeXxeBUVFWVlZXl5eRkZGTU1NRaLxRc7AfzI0zDZidPpVCqVvb29ISEhBQUFPqN9p2oWepZsCzQIRrusrKykpCQvLy87O9toNLpcLoLKByjcpuzE5XKpVCqwk7m5OaFQKBKJhHvH0tLSou+4IyQgEokWFhZE+46FhQWhUDg/Pz8wMMDlctlsttVq9Xg8mMSAh/CxE6fT6fF4bDab0+l0u90mk2l2dvbUqVMtLS1zc3MkVC+k+NRncXGRhLO/MD8/Pzs7KxQKIbf5+fne3t7c3NzCwkK73e5jJ4ewE7fbrdPpBgcH/fz8BgcH5+fnoeBCodCHOi81/Iv+8xCjLRQKR0dHq6qq4uLiDAaD2+3+AKSEbrlN2YnH4zGZTG1tbQkJCQ6HA4YYM+t3uVu6k5q/P1SOM+hop9MpkUjq6urS09MRLyHf4Es9Yc7seDyenZ0di8UiFApPnjwpEokcDoeXbO8k2HzItnhJxutPl8vldDpdLhfA5nK5ZDJZTU1Nfn6+15UQ+4eszF/o7eQ/UH+SjMVimZmZCQoKksvlMNqUIPUX2lJftb0kQH3tVSCjrdFourq6IiIizGbznTmz43Q6TSZTe3t7fHy82+1GtgHa7yUU359/uRLwwj39iRa53W6NRiMQCFgs1s7OjsvlwhQGOWa6/i4sQCk8Hg9ksrOzY7VahULh22+/vbm56fF4oCzE5/5yQfJR1PwQwNDrkILtcrm0Wm1dXV12dvZ++3PIc+7snw5kJ8iCnJ+fv3jxokqlIpLnAyGB6s4oHIhtNM3lchkMhoGBgeDg4DuWndjtdqPR2NnZmZiY6HQ6kSSMzHnk2twZ3exrhRfQmQIxm81SqbSpqQnsxGw2WywWzGL4EmNB0ZxOJ9Y0eTwei8UyPz//9ttvr6+vEzVhFpiy9ZVvJAEsQwD5s9lsFotFpVLV1dVxOBykZjNv9ELv3fPngewEaJyfn7906ZJSqSSjbbfbobZM0fnKf7kS8MI5syFWq1WpVPb19QUFBen1epvNRlD5AIXbdGbHbDarVKq2traUlBSKEN7NoVQvQNwNf3o8Ho1G09ramp2dvbOzQxN8cBJ3gwTet40ejwfJEFhxLRKJ/P39t7a2fJryvqK70QXgc/Sr0+kEO8nJyWFaYZTpsrutQJ4GDYc07Ha7VqudnJyMiIhQKpUkrrtNOHd5e61W68TERFRUFAaTBJUPULhN2Ynb7dZqtS0tLcnJySaTCRFsHwcnhb9jCgdqMlq3s7OjVCobGhoyMzMpqI5Brd1uP/DGu+ckYidutxuhRJfLpdPppqamAgMDV1dX98cXmZK5Y8DzETXE5XLB1GA+UalU1tXV5eXlUTIKvZcp1buqTJ4GrYZA3G63wWAYHx+PiIjY2tpCBo/PaBNa7pjCgVAnDOj1+oGBgYiIiDuWnXg8Hp1OB3Zis9m81mu8bzczxbf/Yth0WHBciZnRQ+5C/IZ5AR6C9Ey8giaqb9U8K/N1+1uBX73OMyP5KDOz/LxugYdDTo/Xcz62P5lt9Kqex+NRqVRNTU1gJxRXh5z333iXnEHXEPzwJ6Z7p6enL168uLGxcSAC94v3Y+vl2/BFTLR4VQ96AfvgdruxeDA/P3+/VJkPuZvLJECj0Qh2IpPJAFHfnA4JBwUmTugnGn3Rxk60PpHsHl2MJ1BuGfNPEGhyZ3TLrS0wm0BvxyvcbjfYSVhYGFbgE5H9AIXbNHYCdtLa2pqSkgIGAInv7u7uF83+M0xB7O9d6lemL/fKLmY+E2nnuAupXoQhPAEaSNpI6WD7X8187PuWqRUHXunlnwh/oCNkSYkzAbi7u7t0Je1vRhbkwBd9UidpZofNZn8ADHxS1b7l7yUYAPzM7mOWzWbz3NzcxYsXJRLJLa/DHflAEux+PWUKFuyEy+XekUK4hY3yeDxGo3FiYiIiIkKlUpFUb9Jo38Ka3M6PYqKORETsBAUy2sQzcCXaxfRfcFv4lXnXJyUBt9ttNBqHhoZCQ0OxDQS19wMU7jp2Qm57Z2cH0wQUF2GK78DeRX6uw+HAr0CSw+GwWq0US8fSEvh7Ah8ZuwMfe6OTVJ8DL8CG5ZSUQ/imtD6AmFIQEK9Gq6l6eDIRmgNf9Emd9LETSJ5g4GMntxaKJNj9ekoKiwAen8/3sZP3Fb6PnbyviHZ2dpioYwKPLDPTONPAmAlI5riU3sikLJ/ghgs+dkI9csMCIYBp0CkPHxtYob/BN+HCve6ip6Pj6U8UvHw/9hTHZqaHzJV4PeTwP6k++y8DaoFjBKKRIe90OvGlA3AUq9WKrEmETLBrCPgTLdIGNcGf+1/0CZ7xsRMIn2DABDPTWqHsi538uVglwTKdxH7B+mInNylYHzu5GUExUccEHu6FW6EoCAqY5cGyANrfDC4AqxcBWgxQmeGWm6nPrb3Gx07eX56EAC+DDjSgy4lgYot0rz13me+glRFIf8HnrPCBOnyajsJxFKjAlfiVae+Yj33fMrXC60q3240n03mwafoTBaLYIOxevzKvocDPgdd8Uid97ASSJxh4gZmJK3yXyjez82dhlQTLdBJeUvXFTm5epD52cjOyYqKOCbz991I4xOsnPAEn4XF87ISk+nEUPoq8E3yUBEkhmBYBI0HY43B2QiBApIEYLogq0VWcdzqdCF0gtsG0d144O/xPErTXZaBTqBICJ2iUy+XCHBOTl2DdAQIqNDNF01tMWBO18nrdJ/Wnj51A8gQDHzu5tVAkwTKdBFNbUfbFTm5S7D52cjOCYqKOgAeLjSQBbOvFNNE0kMag12q1ms1m2kpgP2Jvphof0TW+2Mn7C5YQwDToYCeUik88gyDidRe9Bt/epAADvLjD4bDZbPTpDTyN8mEpyMYE2Z/r/qk+VBMUmJORNDMFjOKr5WAhdrsdmbBgS6BKFCoEf6LAIGru9aJP9k8fO4H8CQZMMO83Sb6ZnT8XriRYsgD7peqLndy8VH3s5GZkxUQdAY/GkzTOhKGGAYejYc7j07z8gY6Gsltupj639hofO3l/eRICmAad+CktwffqWq+76DX0rTVkdWDvcIpDAEDETihwQgBimjx65s0UqD5eF9OMI9WfKoaXIrMEM1B0DYg5KAvVFrOYFD3yetEn+6ePnUD+BAMmmJmgQtnHTv5cuJJgyUnsl6qPndy8VH3s5GZkxUQdAQ++iTICkWJCGQgUiccZ5p9Eayh+zzQaN1OfW3uNj528vzwJAUyD7nQ6FQrF0tLS/Pz86uqqVqtFOAQ5R4esKMb79Hq9WCyenp5eWFhQqVQUg6HbsSPWysrKzMyMUCiUSCQ2m+0jip3QaniXy2U0Gjc3N+fm5hYWFmQymclkojAPxUuMRuPGxgYqL5FIsBIduoEaeoH7/UX80V/hYyeQ8YFg3u9Hfezkz4UkCZacxH6p+tjJzUvVx05uRlZM1DGBZ7VaJRLJ/N6xvr6u1+sR2IYxx4oes9m8vb2NazY2NvR6PTNaj9g8PR++72aqdAuv8bGTw4RJsydIAcGlCH5sb2/X1dVxuVwOh8Pj8aampiwWC3qd7qLrmZ4b1wiFwsrKyuvXr3M4nK6uLjh4zO9gWa/FYpmdnS0tLU1OTmaxWG1tbWazmUIXSGVVKpUSiUQmk8nlcvyrVCqZC5JRE6/6UK1gPenPnZ0dlUo1OTlZV1fHZrNzc3ObmpqWl5dBUBARcTgcSqVyamqqvr6ew+FwudzW1taNjQ3scedyubCCiQgNc46TjLUXx4Js8ev+nw65i35CEw7/9+NnJ1Q96gVmgX4lbDCNC35Flo/RaLRarXQZ3UjXHN5wr1+9zI3X0+jP/exk/+voYioQK2X2IypA1zALXk1m3sW8jADMhAoJk3kXSYkK9Byvd9F5KtAF+x9IM/TYVpjgzTQLTDnTM/cXPrq8E7wLJoKma0kOXtWDYpI8qe1kwajmkIaXTJjXM598C8uHsxOq3v4CVRXqQzjZf+WBZ+h25o1o1/7r7Xa71WrFR7xJJvsvQ6d4PYSu12g0EolEKpUyzbjRaIQjoJ6i6+n5XtKmmlssFrFY3NLSkpWVlZmZyefzl5eXsV8IpaHo9XqhUNjQ0JCdnZ2ZmVlbW7uwsGCxWCjEQkqH93pVnupAhUMu8PrJqyFerWD+6WMnTGl4l0n0VqtVo9FQ6pBQKAwJCQkODubxeC0tLTwer7W1lclO0MdQdavVisxTi8UC6+Z0OqVS6ezsbGdnZ05ODraaQZ9hlgR6pVKpRCJRZ2cni8WKjo62WCxY7+N0Oq1W69zc3PHjx//P//k/zz///Isvvvjcc8+98sorJ06c6OvrU6vV0Ad6nRdLwIdUSKnwp9Pp5HK5fn5+V65cKS0tbWhoqK2tXVlZwQfzYKCdTmd5eXloaGhqampTU1N7e3tlZeXy8jK2GcYnAnZ2dtBSfMcLMiXQIzxjt9vpgW63m8gZVB3iQqwIDcGjIH+KW9IzvbvtoL8/fnaCWTnmxjBkaIArWBPQPrPZDLQg0Ir05J2dHYVCUV5e3tvbi1+NRiPTNTItyEGNPuDcLWQnqCTWmQOZgDoAgN6hLywSf8U6efxJTYYhNhgMwCS8Jm32Q83E5wkBAJxE+hfpBR4ITXQ6nRaLBSgCvcMuABAgqkd531gej7dbLBacJ/XxeDzr6+u9vb3T09M7OztqtRoAttvt6DgvQZPd2F/4qNmJ1Wo1GAwej0etVqNR+ytps9lMJtPOzo7dbofmUrb7zs6O2WymRafYrNPhcCAFDc1BYxFJ9Wr4LfzzcHYC+aMT0fs445XjqdVqbTYbUIEpeKxPxMQ0DClt8oTpdbQUc9awybQlFROQEIVQKOzt7V1ZWYFqw1jBhgNLkJLVajUajRAOLaHAw+12e1hY2BNPPPH000+//PLLv/3tb1977bV33nmnvLxcKpU6HA70FJ5PFo+UDls/oPtoGNnT0xMUFJSYmFhfX19dXc3n86empvR6Pca0sNJNTU0BAQHR0dGtra21tbWFhYUjIyMQDuRA7yIVw1ugPsxwO9kxXADlhVTJIOAn+gQ6jD8J+UawudvZCdNY7w9eEZIAOPSryWTq7++/cOHC0tKSVCrVarVqtVqr1cJcEoOBW3K73WazGb0Oq4qesFgsOp1udXWVz+eHh4ebTCaaN0G2B2yKVqtdXl7m8XiJiYnoaVwG1e3o6Hj77bdra2uXlpZEItHs7Ozg4GBkZGRXV5dUKgX71mg08ATUFjK+pEu0BRyHw0lLS1taWtLpdAaDQSaTaTQa696hVqthzrL2juXlZZ1Op1Kp5HI5PmxL9ZdIJBTmIYhDmR0OB37yeDwGgwE6ZjQa8fEj1AemE4M/GBfkwcAXUp3xZKTpHLLImXD/EbETJn7oXSiQBkJdQblgs9AK+t4T2oJuIkHp9XqLxZKamvriiy9yOBy9Xq9QKOhGXEZu2+vVh/zpVWF6jlfh8NgJNIVoot1uNxgMGHhRBpXBYCA/ZzaboQ6UVgWiYLVaYeaId+JDvpgpBx0H07XZbLgYSeVardZkMlEuNjNTingP4GoymfR7BypjNpuhR/SJcpp3xzgY9YRtJeDp9fqhoaGamprx8fHd3V2r1UoaDQZwI4F7SfXWzuxQVxLemJBDohhcssPh0Ov1aDt9nZuGsLgG/gPhfVwJZ8ykdHg++oU0kZz3jYTwwc4fzk6IDQBRMBdWqxV8lEwoGCqij1A3yqWDl4XD1ul0uMZsNuNRaB1oGcAJHMIKwV7ZbLahoSEejzcyMkJcmQIYqCH4HwwdYAOtsewd6AKxWBwWFpaRkSESiZaWlqanp8fHx69cuZKfny8Wi8nQkYMnOkUYJqACw3V1dUFBQcPDwzqdTq1WS6VSnU6HioEnORyOioqKyMjIzc1NhUIhk8lUKhUss9Pp1Gq1eCDTlxmNRqVSaTQaiScZDAaMPSBksDpYb1BeaCKwRNmZ8Ca0Sdjh2PCxE9Lx/y14CQtIQn/ALK6vr4+NjbFYrKeeeqq/v7+3t3dsbGxtbQ1d5XQ6p6ene3p6VldXHQ4H/O7ExERnZ+fS0hKTXoDuqFSqjo6O6Ohog8FAi2JgmtGdTqdTLpc3Nzdfu3YNbMNms5n3DrvdrtPpTp06NTAwgKdh2FRQUJCfnz8xMWGz2QwGw+DgIKIpGCioVKrh4eHOzk6ZTAaUYzpmbm5uYGDgzJkz586dEwgEQ0NDU1NTW1tbGKw7HA61Wr2ystLT0/POO++Ehob29/cPDg729PTI5XLwHgqHTE9P8/n88vJygUAgEomgtxgEmEwmjUYzMjIyOjq6vr5uNps1Gs3U1FR7e/vq6qper4dJRdRBJBI1NTWVlpbW1taOj49LpVI4OXKKTOrj1XH7//z42QkiUmKxuLa2NioqqqSkJCcnJzAw8Pjx44GBgfPz8xaLZXx8PCkpKTg4eHx83GQyiUSi1NTUS5cuVVdX6/X6qampl1566dFHHz169Ghzc/PGxoZaraboAjzf/pYefoYJd/JP+53oTbITh8NhMBiIHBDNMpvNw8PD9fX1zc3N4+PjGo1mbW0Ndmpra2tkZGRgYAB9bbVaNzY2+vr6enp6QDhAc5VKZVdX1+jo6ObmpsVikUgkY2Njo6Ojc3NzsPJms3lzc3NoaGh8fByEWKFQTExMdHR0rK2tUfQONRSJRNXV1VVVVQMDA5ubm+AWML4qlWpm7zCZTBMTE8XFxQKBQCwWE8O22+0ikSg3Nzc0NDQzM7Onp6evr6+3t3dxcRFRikMEvl+wtzB2Ql2JCuBdTP5qNBr7+vpSU1MTEhJ6e3svX7789ttvnzp1Kj8/Hx8ocLvdcrm8ra2trKysqqqqsLAwLCwM/aXT6SYnJ1ks1okTJ4aHh69fv/7uu++ePXs2PT3dZDLRJo0f3eq8w9kJQRfWANERk8mEUJnRaJyamuLxeGVlZV1dXRsbG2AJLpdrdXV1fHx8aWlJLBZ3dHQMDg7qdDqU+/r6QM42NzdHRkaGhoZWVla0Wu3AwEBBQUFbW5tQKFSpVEA7TH1mZmZ0dHReXh5QMTo6CjuGWul0uoWFhcHBwYGBgaWlJYzNjEbj/Pw8sG00Gi0Wi8FgCA8P53K5CC2A1vN4vMzMzP7+frfbrdPphEJhX1/f6uoqgiVGo3FsbKy9vV0kEmFUACe1uLjY398fFxd3/Pjx1tbWtra2/v5+qB7YmMlkmp+fHxwcDAwMfP3110dHR7u6unp7e6VSKXgDbQG6traG0HhjY+Py8jLGAxRrtFgsk5OTg4ODIpFIo9GYzea1tbW2trb5+XkQHYzJLRbL+vq6QCAoKSlpamqan5/f3t42mUwUI6fY6oFK5GMnpOMHsBPoACSIIOfc3FxbW1t0dPQPfvCD4r2jqqpqeHhYLpfDNAsEgoiIiKamJjBKnU7X0NAQHx9fU1Mjk8lAzIkOq9VqsBPYZRqOME2MQqFobGxMTEyE5iA3BfGPnZ2dd999t6OjAzoJ/GVmZubk5MzMzFit1q2trcbGRj8/v4mJCexfsrq6WlxcHBkZ2dfXp9FoyJ309PRUVFS8+uqrr7/+ek5OTlFRUU1NzdLSEuIiZrPZaDT29vYWFBT87ne/O3XqVEVFRVFRUWVl5erqKga1drtdpVKV7x0Ffzq4XG5jY6NOp4N1sNlsCoWitLQ0MTGRz+e3tbVVV1cX7h15eXlra2twGAqFoqmpKTU1tbCwsKysrKioKDk5OSoqigasJEAS1IHgZp78RNiJw+EQi8XZ2dn/8i//cuzYscTExPj4+KNHjz722GMnTpwQiUTz8/Nnzpz57ne/W1ZWZjAYRCKRn5/fz3/+88DAQLvdLhaLX3rppR/96Ednzpzp7u7WaDQ6nY5GTrcJO8FwE1TD4/GQjy8vL+fxeOXl5fn5+Ww2Oy4ubmVlxWAwzM7O5ufnh4aGAs8mk2lqaorNZkdHRy8uLsL8OZ3Ora2tsrKyq1evtuwdpaWlBQUFFRUVqampMpkMQ+SVlZWSkpK4uLiOjo62traqqqqioqKCggI2mw26b7fb5+fnS0tLi4uLy/aOwsLCoqKinp4eDO/sdvv6+npBQUFISEhdXR2PxysqKuJyuTk5OU1NTRS2mZycTEhIeOONN0JCQlCN0tLSwcFBfP+FCTOv8sfPTiiKgEBCa2vrq6+++t3vfjchIeH69evvvffer3/962effZbNZsMP5eTkxMfHFxYWtra2lpWVnTp16syZM52dnQqForu7++jRo3/1V3+VmprKYrECAgKefvrpn/70p7m5uZjmRhziAwTwvKR04J+HsxM0kwgZ4goIvIlEIh6PV1hYyOVyMVQrKyvr7+/XaDQej0ckEqWnp0dHR2dlZeXk5ERHR2dnZ5eUlBQUFGRmZhYWFprNZqlUWltbm5qaymazYegqKirq6upyc3N5PB7GdRaLBab73XffjYiIgMGrqamZmJhQqVSonlQq7e7uvnz5ckpKilAoxHhVJpPx+fyEhISCggLEhm02W1hYWH5+PpQIl/H5/MLCwvHxcbCT1tbW0NDQtrY2cCOlUllZWXnlypX6+nqEVOGqhoeHeTyen5/fSy+9VFNTk5mZWVZWJhKJQAgQvh0dHa2srDx+/Phzzz1XXl5eWlpaUlIyOzur1+sRRzSZTAKBoLi4uKSkpLS0lMvlFhYWVlRUwMdh6Gg0GhsbG9PT00tKSgQCQUNDQ15eXlFREZvNHhsbwzjTYrH09fVB/XNzcwsLCzkcTnBw8OrqKi329LGT//1SnU6nO/ArgP8fN9kXOwElhwSxgSbWqnA4nCeffLKjo6Ozs7Onp2d+fl6tVuOykZGRkydPcrlcANRisQwODsbExOTm5i4vL1MAEH2sUCgEAkFUVBTxX/hdUleXyyWRSOrq6hISEhDGwAWY9/F4PO+88052dnZfXx8YeltbW1BQkEAgkMlkBoNBKpUODw//z//8T1tbG+K029vbjY2NAQEBtbW1m5ubtJ55YWFhYGDg7NmzAQEBHXtHT0+PVCoFq9Dr9TabbXp6uqur68yZM1FRUd3d3R0dHaOjoxKJBB5Fp9P19/e/8847lZWV4+PjKysrY2NjGI2NjY0hWrizs4OOCAkJCQoKCgsLS0lJqays7OzszM7OXl9fx7h5ZmbGz88vOjq6v79/fX19ZmYmOTn5+eefR9vBSOjfm3TSHz87AQDUanVjY+OXv/zlY8eOdXV1qdXqvr6+55577u/+7u8qKys1Gk1iYuK//uu/FhUVGY1Gs9mcmpr65JNPnj9/HvNBp06deuaZZ3JycnQ6HTqLQsc32XDCEgpMwNMAdL8TvcnYCYXHKVaxsrKSmpoaGxvb0dGxsrIyNzfH4/EuXrz4m9/8ZmxszGQyra+vl5aWvvTSS0iMsFqtYrG4uLjY399/cHAQAUIw3c7OzpCQkNDQ0JiYmIyMDD6f39XVlZGRsbW1BfKhVCpbW1v9/PzCwsLi4+NZLBafz+/u7k5PT0dUWS6Xl5SU+Pn5lZSULCwsrK2ttba2pqamZmRkLCwswH/LZLLr168//fTT165da25uRjwmNjY2Pj4eo0Cn0ykWi3Nyci5evJient7T0zM8PNzb2ysSiSiZwEvI9Od+wX4MsROK2jqdzoWFhZMnT371q19NSEhQKpVra2upqamPP/74b37zm+3t7bW1tWeffTY6OlokEtlsNqVSWV9f/53vfCc4OHhubm56evr8+fMPPPBARkbG+vr61tZWZmbmj370o//4j/9YW1sjNB4+t0Wi+HMLh7MTRIuZuoD6bG1tVVRUREVF8fn8ubm5tbW1jo6O9PT0tLS02dlZp9OpUqmioqKOHDmSkpLS1dWVlJT0/PPPp6Sk9PT0ZGdnHzt2DJaqv7/f39//2LFjycnJ7e3tarV6dnY2Nzc3Pj6+vr4e8eaZmZns7OywsLDU1NSenp6urq6hoaHV1VWj0Qjd12q1k5OTZ86cCQ8P39zcRMxbqVQWFhZGRkaWl5cbDAZEWSIjI+Pj4wf3jomJiaqqqmvXrvH5fKlUiqya4QGsquoAACAASURBVOHhY8eOVVZW4sl6vb67uzsmJqa4uBh9AV1eWFgYHh6OjY198803R0ZGWlpa+vv7KS4CD7W8vDwwMBAVFXXy5MnOzs7BwcHu7m6sfqDRxeXLlzMzM0dGRjY3NycmJgoLC0NCQnp7e7HqAlH54eHhtLS04ODg8PDwq1evstns4eHhnJyc4eFhDDy0Wm1wcPCVK1eam5uFQuHExASHw/nlL3+JjkAPHg4eX+yEaa69Z3aY7ATdj5nInp6ekydP7uzs0Mw38Opyucxm86VLl7hcLk1AWCyW0r1DJBJRZwBkYCeRkZGULE3ZRuAxYCd8Pv/q1asgARgfmEwmzCUdOXLkxIkTZ86cOXbs2JEjRx5//PHExMTp6WlE29xut1qtfvHFF3t7e2EonU6nTqfLzs7GTAGZGEzSx8bGZmRkoG60ThhTQmC7Ho8nLS2ttLQUNJ92wXe5XLOzs+np6deuXZNIJBqNRqvV6vX6ra2t4uLi9PT0qakpKK3D4VCpVAUFBb///e/Dw8NnZmYwRWU0GvFMl8s1MzMTFBTU2dm5sbGxtra2tbW1uLjY0NCA8S5mmilqcpNDt4+fnSCDQaVStba2PvLII3Fxcaurqy6XSy6XV1RUPPTQQ5GRkSKRKC4u7tvf/nZ5eTlyMOPi4n72s59duHAB/PXkyZNPPvkkl8ulXmBa5JtsO9MxMOH+4dkJ4ErxXo1G09raeu7cOblcjg5yOp0mk2lzczM8PFwsFkMpJiYmXnnlFUzeg4SJRKKUlJTBwUEkmcIir6+vczicX//619nZ2Zubm6DXCBOSYmo0Gi6X+/jjj+fk5KytrWHSB1rm8Xi6u7uvX79eVVVlMBi2t7fVarVer5+eni4oKMjNzcVY0OPxlJeXv/vuu7Ozs1tbW5hXbWlpYbPZW1tbiFSZzea+vr7CwsK+vj7IHKFppmAPLH/87ATyhI4gBHXx4sUf/OAHExMTEMv09PRbb73185//vLu7u7y8/NFHH2WxWCqVCinJCoXihz/84RNPPFFWVrawsJCUlPSFL3xhYWFBp9NhfHLq1Km///u/Hx8fxzQrZisObPuHPPm+7IQ5PoGyeDye1tZWFotVW1ur0WiQb6TT6cbGxrKysthsNvJGWSwWh8ORy+V2u12pVJ46dWpwcBBo8ff3x9yNXC5/9913X3/9dYlEghEaIpc1NTVnz57FIMpsNvf29paXl4+MjACcCP0iNwVUwGw2s9nsa9euzczM6HQ6rPfMzs7Ozc3d2NjAXKfVar148eJLL7303nvvnTt37vz5848//vi5c+c6OztBldxut8lkunDhAo/Ho6k0s9mcl5dXVla2vLwM04FsdOSUBAUFIR8IeCbjv7OzgwFAaWlpTEwMKAJiYDDm6+vrV69ezc3NnZmZ0Wg0BoNBq9VKpdKKiorr1693d3fD7yDHtqWl5dixY+fOnRseHiaHhTYajUaFQvHb3/62s7NTLBZLJBK1Wr22tsblcpVKJWYAkI5zCE587IRprg9gJ9B2LKwAKF0uV19f3x/+8AfKAEC0DWkfbrc7KiqKy+ViahYZZFVVVTweDylOmDgEdrVabVtbW2RkJNQGjoe+L4iBKc3sIPGQLK/T6dzd3X3nnXcaGhoAI6lUurq6eunSpZCQkJ6eHsy4azSas2fP9vf3Y3bGaDTabLaMjIyGhgaxWIw5TgDLZrMhCAmsI5sE9AWsC1ObcXFxOTk5EAUzv727u/utt95isVhpe0dGRgaLxWKz2ZmZmS+88AIWO9hsNgT9qqqqsrOzp6amkMYFFGLuyWq1arXazs7Op5566le/+tXp06ezs7NHR0eROOy1Ih9adwi+6aePn53Ac1sslpGRka997Wvp6elbW1to78bGxoMPPhgUFLSyspKUlPTNb36Ty+ViTwIWi/Xss8+GhoaCOly4cOGXv/wlh8NBQiK+v8j0edTAmyww4f7h2QlgDKg4nc6lpaW8vLzc3FxEmynjVSaTATymvWNycvLll1/W6XRWqxXZmgsLC7Gxsb29vUajkZ6m0Wjy8/PLyspmZ2cVCgUCFbu7uyDKGMCtra0VFhbW1tbiFbu7u1gUBrObm5t7+vTp5OTkvLy869evx8bGcjic/Pz8S5cuvf766wj1m83m0tLS6OhoZE2CU9bW1iYkJCwtLWGxGJIMKioqenp6dnd34RchPbTrRsJn9hTKH3XshN6I6dT19fWQkJBf/OIXExMTmIOTyWQRERG/+MUvCgsLg4KCHn744aysLKgV8jZee+21//qv/+JyucvLyxEREffcc8/k5CTswPr6empq6pe+9CU+n4+FSwDAjZr/Yc4fzk7wZIqg0FRvamrqu+++e+3atbS0tOvXr1+9ejUxMfHatWsRERFnzpzBeDI/P7+2ttZgMGxtbU1PT7NYrLm5OYfD0dPTc+nSJYvFolQqdTpdXl5eWlqaTqeDyuCNAwMD0dHRS0tLcrncZDJ1dnYWFBQMDQ2RWsFTYD9W3LKyspKVlZWamoqlAHK5nMPhNDY2wtpjoe/ly5cLCgqMRiPWGWxtbV25ciU6Orq9vV2n0+n1eo/HExoaWlVVheRuvC4/P7+0tHR1dRUGHOrm8XgaGhpiY2ORLWA0GhFoxNIbuCq3241YoNPppERXZMCIxeKjR48mJSVhOi8jIyMlJQX1P3bsWF1dHd6F1R41NTWFhYWjo6NwLna7HWklcJp2u318fPx3v/vdc889d+zYsZCQkL6+PolEgjpgmv5whPjYCeHqfwtewgILBiGAAkDu/f39b7zxBvgjRg8AGa6JjIwsKirClUhizcrKKi8v397eprAEtF2j0bS0tERERFAKHkwerenyeDwKhaK+vj4+Ph5pIrA+xGDeeuut9vZ2pr3e3t6+fPlyVlaWVCp1uVwajebNN98cGBjAq8EPoqKiWltblUolRSCQxMThcEpKStBe8A9wLAx5YbySkpKKi4shKLQXCdjt7e1HjhwpLCysrq4uKyvj8XhVVVXFxcUNDQ1cLlcqle7s7JhMJmTRlpeXl5SUiEQiEHbwcUQ+zWYzIkMrKyujo6OdnZ1lZWXh4eGnT5/G8A4vZYYQvHrtwD8/fnaCPtJoNENDQw8//HBSUtLa2ho0c3V19cEHH4yNjRWLxYmJiY899hiPxzObzVqtNi0t7ZlnnvHz80Pe0oULF/77v/+bw+Gg1YhSkAeCpTiwvTc6yYT7LWEncOfgqRKJpKmpCbEKDIyQw49VnRhfIsz25ptvQn1gUmdnZ6Ojo4VCIWwWPoqpVqvz8/MrKio2NzeBRlgryrzByvzCwsKSkpKtrS3UBFjCNGhubu6lS5d4PF5NTQ2Xy+Xz+SjX19fzeDzUCrETf39/+ACsgxAIBNeuXZudnQUpdDqdmKbExD9RZHTEjUR9oHg/BnZC/MxisUil0vDw8B//+MfDw8MYTRmNxpiYmJ/+9KeNjY2ZmZmPPPLIlStX5HI5ApMej+eNN95ALGppaSkuLu7zn//84uIidFwikbDZ7IceegghT6YPPkQIH+yn92UnMGjUF0BXRkZGcHBwRUVFQ0NDWVlZR0dHbW1tVVVVfX29QCBAFCQ7O7uyshIZqSqVKjY2dmxszOFwdHZ2+vv7I4ir0+muXr0aHx8PAqRSqRCW6+zsjI6OxlyJy+UaGRlBUgvaSAuIYDDhws1mc3V1dXR0NJJ1MjIyeDweZtVpVUtgYGBeXh6osFKpRH4eh8PJzMzUaDSokp+fX2VlJYas+JfFYhUVFW1sbCCUiACSw+FobGxMSEhAcAvyIb8DTJrN5oKCgri4OLQOZgQCXF5efu2117Kysqqrq+vq6iorK0tKSvh8PgoLCws2mw3jBI/Hw+fzq6urhUIhhdLh1yjxwGKxYBVSd3c3j8e7fv36iy++ODk5CTWH7h8CDx87YZprb3ZCCgAJUiyxv7//zTffhHDxL61o93g8kZGRhYWFtALWbrezWKzS0tKNjQ3sxECz9QqForm5OSIigsgNhmK4F7ZPLpfX19cnJCSYTCZalYqamM1mf39/xBWpMi6X6/r16wig7ezsGAyG119/vb+/HzEbt9ttMBgCAwObm5tlMhmtBoT1v3r1amZmJlCOVwC+tOrS7XYnJSUVFRXBd0IBoLeTk5NXrlwpLCxcWlra3NyU7B1YsYb8FYwqsCFBSUlJVVWVWCyGXiH8CEVyuVzb29ttbW3I2tNqtevr6y0tLZcvX+bz+ZTJ6+UYvP7cj/iPn52gvVqtdnp6+qtf/erVq1c3NjaQW93f3/9P//RPFRUVOp0uKSnpW9/6FpvNRhpEQkLCL3/5Sz8/P9CRs2fP/upXv8rOzqYFVkxa9omzE0AFVQVXqK+vj4mJkcvl+Almy263azQaeEeXyzUxMfHmm29ipg9QHx8fDwoKmpubU6lUlDGn1WrLy8sLCgo2NjagicAJjZidTqdEIikrKysuLgYXxwWYprRarQKBICMjo7m5WSKRbP3p2Nzc3NrawgbNwFhVVVVERARcBcDc3t6enZ0tEomwB7Tb7R4dHeVyue3t7ZA/meP9SGOeASyZ/37U7ATCgTrbbDapVBoaGvqDH/xgaGgIk4NSqTQiIuLpp59eXFzs6en51re+9fbbb09MTGCRoMFgePnll//whz+0tLSIRKLIyMgHHnhgZWUFJmtxcTEmJub73//+xsYGXCkMGrPJt6p8ODuhHW7QXmTFulyu+vr61NTUuro6hUKxtrYm3Ttov0qALT09vbi4GMP9tbW1yMjIyclJl8vV0dHh5+eHMZhKpbpw4cIbb7yBlsKbarVaHo8XHBxMo8H+/v6KiorR0VHEkKAI1AW0ZYBYLC4tLU1KSlIoFIiIILCBdfJ2ux1rdnA7KJTL5SopKUlJSQGw3W73uXPnKisr0QRMISUnJxcVFWHQC/sA/FdXV0dGRlKVSKEwhECtCgoKEC8EkcLo1OPxSKXSmJiY/Pz8qakpiUSyvb29tbWlUCi2t7exahKTMljB2tbWxuPxQOJRMayQwDhBp9M1NzfrdDqMuyQSSV9fX2BgYFVV1fb2NiB6eOztbmcnpEsgKfiTrAktMadhEObRW1pajhw5gk1BdDodMqKxbY7T6UxJScnMzBSLxQBfR0fHqVOnEhISZmdnKZyFxbRisZjP50dHR2NaDpMXCLpgrtFoNIrF4rKystjYWKlUqtfroTxAoUqlOnfuHGZttFotkviGhobi4uIqKyuxxt1sNp89e7ayslIqlVoslq2trdra2ueff76kpAT8Ha9DyD06OjoxMRHT88AZ8RK73W4ymYxG45UrVzgcjmbvkEqlCPMgpsfn869cucJcDWQymYaGhpBOBW5uMBgUCgUWPszOzmK6CrYewnE4HJgkWlxcRDoONpiJiIiorq4GO6GQD/UUCtSbVGBeoNVq4XVAg6DPXlcSAaUA5k0yAAq80RtBvEwm0+zs7Ne+9rULFy5MTU05HA4EzI8cOTI1NWWz2dhs9ne+85033ngDK2bPnDnz/e9//8iRIxsbGy6XKzEx8YknnggLC1teXlapVJR1QdX+cwtMMk73wvczJynMZvPs7GxAQMDW1hYksF/CQA5sMXCiVqvb2toCAwOJR2Jqv7+/v6CgAKEjt9s9Nzd3+vTpqakpTKuLxeKUlJTf//73HR0dSLuDHxWLxVgxIRQKsR0Foh30vUyTyTQ3N4elGdiABxrkcrmgJktLSyUlJWlpaVNTU8gMowXMExMTWPhjtVorKytDQ0O1Wi1m7m02W0NDQ0JCwszMDIYEOzs7eFFhYaFWq4XRFIvFeCmJcX8BgoVrhwAVCkVNTU1eXt5+edLtXoMiGB/8ikl99AjTZJGBgrMBwtHYixcvfvvb3y4tLcWsbkNDg7+/f1xcHL5H8corrzz99NNFRUUWiwXrp1544YWsrKyNjY3FxcWwsLB77rlHIBAgbNnd3X3y5MmLFy9qNBpiJzepINS6my8YDIaRkZGQkBDa6QcQhejg3gBC6JrH41ldXS0qKkpISFhZWUGLQJoHBgZGRkbgWVksFpfLhbUUi8VBQUEjIyNOp7Orq8vf31+tVut0OrlcHh0d/corr+Tm5ra3ty8sLPT19ZWUlKSmppaVlUHaFosFEbWqqiraAHBjY2NpaUmhUGBOH/1lMpl6enqOHDmSmZmZl5eHBETYQ2xFExoampOTYzAYjEajRqPZ3NwUCoWpqanp6enYSUuj0cTGxubl5a2urkLyzc3Nb7zxRnJy8vr6OoI0EIVOpysoKAgODkbERavVYjII8QzMnhsMhtzc3IiICLzRYrEgkgTF6e3tjYmJaWxspOwxh8MxOjra3d2NhQtwglB2JGMZjUbt3oEhFkbCy8vLr7/++sDAACi+xWKZmJgIDg4uKyujZTvQ6BtBwsdO/igZstqk59A6GErog8lkWlpaGhwc5HA4r732WltbW9fesbCwALMI9Dc1NaWnp+fl5bW1tQ0PDycnJx8/fjwsLKy9vR1bBSBRC5v0ZWVlBQQE8Pn8lpaWqakpbPPqcrn0ej3mNWpqaq5evern5ycQCLq6umZmZpRKJbhCT0/PsWPHcnNzu7q6BAJBU1NTf39/dnZ2Wlpab28vDLTVauVwOMnJyZWVlV1dXXw+Pyoq6pVXXklJSZmamgKFdzgcAwMD7e3tAQEBoaGhra2tnZ2dw8PDWq0WazFcLhcWH3V3d1+6dOny5cvUdqVSiWtMJpNQKMQcf2tr68DAwNDQUHd3N8WNkCiwuLjY2toaGxt77dq1ioqK9vb23t5ebAaAZdJGo7Gpqek3v/lNRUVFR0dHb29ve3t7Xl5eRETE3NwcTYEdSFDoc5pkuNFx0FuNRtPW1paVlYUwNZF3ZlgCxh3uBMGPGxlfoiMA0P43wsfo9frJycmvf/3rL7/8clFR0fj4uEAgOHXqVF1dnUwmw/j+5Zdf/tnPfob9l957772nnnrq+PHjWBPe1tb20ksvHTt2jMfjLS0tweQRVm9VgZwoZRxbLJa5ubmLFy8SOznQgmBijr7VbjKZFhYW8vLyEhMTW1pasLaFz+dnZmZevXoVauJwODY3N5OSklgsVk1NTW9vLxb1vPrqqzk5OVh1rNfrV1ZWamtrr1y5kpycXF5e3t7ePjY2BtOMjFSj0SgUCisqKmJjYxMSEng8Xnt7O/ZHwe5wyAPr7u5OSkoqKCjo3zsGBwcbGhry8/MFAgG89fr6ekZGxqlTp7DdhdlsVqlUhYWFFy5cqK2txXDT7XZLpVI+n5+YmNjU1IRFbdXV1Vjjc6BkcJIIHFDk8XjkcjmPx8vNzWUiE2XaVBDTSYhr0mV4Avkh6np6O12JTqEkR39//0ceeSQqKmpgYGB6evratWuJiYmga5h0OH78eHR09NDQ0NjYGPbmmZmZcblcy8vLkZGR99xzz7Vr17A/R1FRUWBg4PDwMIYutIs0VebWFrBdE7ETmjdBEI6p7CRtj8czNDSUkJBQXl7e39/f1tY2NDTU2NjI4XBaWlpsNptMJktOTk5ISBgbG7NarZubmwEBAQKBQKfTjYyMREREYMpbrVZnZWWdO3cOWXTl5eVsNjshIaG4uJhypW022+bmZmVlZXx8fGdn58DAwPDwcF1dXVtb29bWFlYVkILMzc299957v//97wcHB7FDJibNkZxx/vz56Ojojo6O7u7u1tbWhoaGkpISFoslEAhgi7AOOS0tLT8/f2BgoLOzMykp6fXXXw8LCxscHAS9cLvdQqGwvb09Pj7+/PnzXV1dWEmEL40gJONwOCYnJzs6OuLi4vz9/dvb2zs7O/v6+ra3twF1TAumpaVlZ2c3NTUNDQ2Njo729vZmZ2cXFRXNzc1hZkcsFvf19eXk5CANsbOzs6OjY3p6GvvaIdt3cXHxqaee4nA4AoGgs7MT2+oEBAT09fVh9gpJeATg/QUfO/mjTEivmOwE2AIvxm7WpaWlyLSKiIiIjY0NCQmJi4tra2sDPcRIS6VSNTU1+fv7Hz169OrVq+3t7X19fbW1tU1NTevr6y6Xa3FxMTc3N3rviI2NPX/+fExMTFxcXHFxMVIxsE9GTk5OeHh4REREZGRkQEBAUlJSfHx8fn6+UCh0u90ajebq1atYchkcHBwUFBQeHo6diRcXF5F8CjK0sbGRl5d3cu9gsVg9PT3d3d1sNrulpQUBFZvNhj3BAgMDIyIiLl++fOnSpaSkpJWVFXgCEIvr169fvnwZS8iio6MjIiLS09Pn5uaQ2IgR7fLycmNjY2Rk5NmzZ/38/CIjI+vr67EaFl8DGBsbu3z58oULF4KCgqKjo6OiomJiYurr6xGrNO4dCPCw2Wx/f/8TJ06cPn06JSVlcnISIUpmeIMsMtO+H9iVLpdLqVQ2NTVlZGRg4zg8h+KotJshk/cQTWGav/1axDyDmuAhVqtVJpONjY194xvfOH78eGRk5JUrV4qKigYHBx0Oh06nQwqeQCB45513AgICWltbOzo68GEE6LlUKs3IyAgKCiouLt7e3maGN5gv/fBleEQMerB1nlAovHTpkkQiuRE/A3ujzyaAXDqdTqVSyefzY2Ji3nvvvdOnT4eEhPD5fCTfYTGX0WgcHh6+fPnyW2+9haznoaGh1tbWtLS0rq4u5d7R19d37dq106dP+/v7A+RJSUlwMAiAb2xsIB8rLCwsJCQkIiIiJiaGxWL19vYirdtgMMCSLi4u1tbWnts7wsPD2Ww29oJD12NJf2BgYFZWFsJ18/PzJSUlCQkJSGTGcxwOx+rqKkalr732mp+fH4vFwr4ghwif8InBvdvtViqVdXV1+fn5kCrykCiMBzZDAke0HA9Bqwnn+19KwMMkLx4lk8mCgoK+8Y1vJCYmJiQkJCUlVVZWLi4uIvaOt4+OjmZnZyckJGRlZQkEAiypQI7z5cuX77///tTU1Pj4+Li4OLhG+g4G2Mn+mtyqMwaDYXh4OCIiQqPRIIyNmBDm4G7ETjA9wWKxgoKCTpw4ERgYiHXgSAoWiUTJycnBwcHV1dXYDpvNZvP5/I29o6KiIjQ0VK1WWywWFouVnJxsMpkmJydra2uHh4eVSiXUBLlNWOoiFApZLNb58+ffeeed4ODgjIyMwcFBhIGZ2+xubm5yudywsDDs3KpSqbCDAKYvw8PDL168GBYWdvny5StXrsTHxxcUFKCbYILcbvf29nZJSUlgYCD2zJyfn+/p6eFwODU1NVic7/F4rl+/HhkZGRUVFRISEh8f7+fnl5ycPDQ0hIx7l8tlMBgyMzMjIiKCg4MvXboUGRkZFhYWHh4+Pj5Om4UiNNLb2xsfH//ee+8FBQX5+/vzeDzEbo1Go0wmGxkZSUlJCQ4ODgkJgQ1PSEhobGwUi8WgZQjDYLFqQEDASy+99PbbbycnJ2OuB5KhpUY3AoyPnfxRMge6NMR+sVACqSEGg0Gv12NYhnxY+GboOdye2WzGhAWcOq3HQW4KTA/YLjIHDQbDzs4OYmIY0CP5kWbZrVarWq2mvBNMJGEbWazcgSXC/l20yoYSYmgohlfAimGjdIqUIjVkd3fXbDYD6zAEmKRExpxcLtdqtXg+sgqwy8vu7i6CRnBXCI9T/iZAT6uvEepEe9FAWleGARnG8YAvPvWs1+tlMhlNLTPZA9pC1pxpsBDbYF6g0+na29uZGaaQHq7EG5G4DoeEx+J1NKNM0QWc3/8vroTwEXOanJx85JFH8vLyFAoF0m7QUmTRA1dIlUBPwVeBgJIXwVIRJPpQo25hgQwEWmQymbDrzNra2iGUCMADoUeT8RxAHR8rwIIvGHTE/ED3QQ5wDdIIsP0DQtAIyHnVCv2L0BeWpCFPhaRNWQi0uhITOpT4At0EEwV68RkKjEN2d3ehFxAstg+ACoCxYaMtVAM5K1TDAwu0rz/ZB7lcXltbm5OTQ9kAJF7M5RM2cB52CeQGY00oIGqIl6KMjkMaPppjNpvFYrGfn9+//du/ra6ukrZiasBut5PRA7ocDgeWRGGdyNzcXHR09Fe+8pXZ2VmQaa1WC2O4tbXFjMnfQhzSo1wuFzYHCg4ORhoTeo0pZ6o/Uw7oLzAJqDZQge95IcECE9m4EnK22+2gCw6HQ6vVajSaqqqqkpISzNczWaPT6dTr9bB1iKxj2hGxB9oIFeuHUTGn0zkyMhIUFLS4uAiSRDXf3d2F18dEDykLImc2m02tViNFBpYHZAW3w9SAwuJ6YACGCxt0IRhsMBiwxgoIhyQxIMTQEeFPxDzwrSUydIAltoTGBvxIvdJqtVicjNkiUFWsFIPjg3UFUQPksLcnAvYQKYGf2a1U9rGTP4qC4MKMncBDI5qqVCrhksk905VwITA3pF3wNDqdDowVRgc2F5ub0bgct5AKkRZ5jaiAQuCPcLm9vQ1ejLVhIDcUBoChB5hgsLDJBGaRMemI1gF8aAgSA4FdlEGP6NWoCdgS2gXJAIKANS32wUAH7of2tAU7odXRyPbFngowxLiL1sLB/UDypIFMUROgqR+92InT6ZTJZHV1dWlpafRe9BH0ByoNLQXLhJYyX4pXe+WlohqoAMpMQWm12pqamocffjgzM1MikWC7GqwtRCdCUJh+RsgXug35Y3oOlotWVTAbfkvKYGZkKbA95djY2Llz526GndCHT4ExBMBIqiBh9Cdah+A8DYX1ej12hYc0ACGACnwOxtflcmm1WjpDPoNSEOBvYCLRcZjlgTCJ+NrtdqS8oOYYbNhstt3dXUCOYABfBX2h1yEkg+l8At6BBVJqgodSqaytrc3NzaV8QJpWY3YlKgApYVBBEz1A74GvY+bJofnb29sXL1587LHHMK1MFgw0EWJB1BP8CeQD8l9ZWYmJibn33nvx1QWMIsC3MOSAtCnBgln/D19GRv/w8HBoaKhCoYAKoO1QQOZQhMQLYcJcgHBAl0FSqQfRWFSSbBfoJpyxRqNhsVjpwD44bwAAIABJREFU6elMZTfsHZh2R+AE8UI8FqaSUKfRaGBazWazXq/v6+uLjIzExDRoEKIL2KEVOIT9xGgWikDAhhMBL6dtn8g0EemH70C6HnFrEClcjHEX9FS3d8DugZfA/kNWxDnghvABTvg4rPkH74EEYPHAnlFnjFfNZjMNQjBix8pNMrA3gjHO+9jJH+VDXo04B7BLzAP+kla+QA2AKqKZGGBBN0jnaf8G+ACCJnoX/UqjTFglvBSwQMXoM8JAAy5A8B8RCLwOwQ+QACyrgRHEYymeAYwC01qtFtQE1QOIqQK0UQ8MGRQDZAIjYCTcUFug4RhAEE2B26MsMEQLyIIAweQgMRzBLUx/DCcHSke2bz+4qR+92Ak+wNbc3IxFSbT6CbYJekXzGugyxHu83njIq1EZXAACZ7PZVlZWYmNjv/jFL77xxhuNjY1YxY0n0/eSiKZgHg0OAIKFqiOigw4lDrG/7R/4DNwM3oWuNBqNMzMzAQEBWBFwoyfDLtPSA2Q3o2dh1rGjCUCFLEWiswQStAsOD10A5JA7xGPREYRPkhIYADFyxKtgpukJGJKSD0CnoxeggMST8Hw8HAqIsQTOYLk7aTQgfSPhwJLg+bjG4/HIZDIej5eTk0NODhQZXzmB0Eg1MJYgZYS0CQBMqJOVAPAgE2yn9OKLL37961+/evUqvhRBEVmMlOB1YDHgSGArsJnH7373u0996lOFhYWLi4sYjUAOxDght0Mk8IF/otjJpUuXKD2T5AOfShIg8WIUhBAjRAFhwlmi2sA5oY45X+x0Og0Gw/z8fG5u7okTJ44ePRofH9/f349UaAI2xbaRDA7rAS2m+U2bzabVauvr61NSUiIiIs6dO3f06NGMjAyMcgnhqBi4O1lg5qfygGRiJ2QnQY5RAbwalpNAjivJNwE2UBMiUmAJSMAi2dIwG8MAMDkIE9fAREALSHo0rsDDcQ3aRZYf0RTwHsroOgQhPnbyR+EwgU4eCIYDXQg6At0mP4E/gTDYNQAXPQojiG19QUgxVQQGTTSfaClQjtk4wIg4EK1gBAsB8mgHFLwIJhioxQV4FG4BbwBcEFMBsslJ4BUAGSEbwAJnB+MmVwolp/AGgItnAqBQDGYwkGAK64l/qXogQBAUuQfQCAQD8UbqnQNhTf3oxU6wiXVLSwv2noI/Rg1RDZPJpFKpFhcXu7q6CgsLMzIy+vv7EZeCg2H+S3WgAtlHugwTf1hEcPbs2fj4+KamJuxGijExPDH6BY6QBkw2mw1RN2Jp9JUl2OUD2/6BT8LtoWep14RCob+/P/a3vdGTcSOqTaoBJ8dEGjwxkIC2QzhMAwdWQQ/BT2AkqBhEQR4aOIHLJJcMfUHwnISJHqH5IOgpAAA3QIEc3EIIR4VBmwB+sry4En13I+GAnRDU8Vi5XF5dXY01O+REYUBg6DUajUgkam1tzc/Pz8vLGx0dZW7zQwNZAp4XHmCyQG31ej2yB86dO1daWorvrWC8QS4HFA06CDKHSJJerx8eHo6MjDx16hTuxZAGTBRaSYzwEAkc/hOzFV5lzGz29/cTOwEyER86hJ1Q04g6UGehE8loE0LwZKDIYrFsbGw0NDTg+1/l5eWzs7NMZkZjPNA7cEfi5WSfkb3R399fVlbG5XLx2ZqqqiqdTodpXEQ4dnd3TSYTHoWKIXiDyqO7AV3yCAixEENCaA2Yp823gHnKFvBScPqSMFaGwmUQUEFPIUbYZHBQeBkKPKOGeBGpLeI0kAYUjWnf4KHINwGKhyDEx07+KBzyaszYCXwkxvpg5egGRB1gCuFxodgAARlQKAMtA7ZarUhTxfARN1KcluY+aIyIApgQzYnAxqFicACoErgq8kJIYaDDmBbFSWTLIhID5IFV0JiVJoMwUMBdFMAklAOa5FHIrJPvYRIaWGFM2RCOYRFIByhuQSyHttKnJRj4ycscU4AXHUn96MVOHA4HdpfJzMykaQKTySSVSufn5zs7OysqKtLT0/38/H77299+//vff+yxx65evUqbDUDsZMXIklKVmGfQF+gjtVq9urq6sbGxsrKyurqKPAmKw0Fu4KwEMMgc42aMMGCP3verLofo+eE/UbfCDGG4JhQK/fz8VlZWCKL7HwJfSHcR3YTBZXIL7HcCMaKleCyMF24EawckyIkyIzqQPxQHZfJAxF0wMiNNJCWFcWeaeLwaiQi0NA95GxiAIkkFrSMAoIAuA5j3i4XOEBJo/KDRaBoaGnJzcxEnw+zD9vb2/Px8b29vVVVVUlLS+fPnn3nmme9973v/+Z//mZGRgXkNsumQKtPIAHt4KbET1HNra2thYUEsFm9vb29uboK1gD7SQBZ1w9AI0kCUSyaTiUQiqVQqFAo1Gg24GhALx4Neg+SpyX9Wgaj8gQUwpPDwcJVKhebDW0PpSPGh6WS3CWMU0gNIqM6Y8kDoF7UFKqB3JEBYMBh2PJxuhMAR9IX0iFJQqAZGBjwABp9m6GDS8dEGmFAaoQH2NIoj7DHtKjKuSBdgsbGXICgR+DSTxNAoF7QSL8WOhUj2grHCOBzqT0ERVMarhqSVeDJki39pat5isezu7jLnYTEzS1YUnX4IYHzs5I/CIa9GKIcNhU4SYyCE0dgLvIFmfMlSw3ygq7AjDc5gfp2icNAleik0BK/DveSMQWmhaRTqJ1qAJ4CvMKkxLbgHvJDHQISXjDX8JTSTOZQECklvYW0xyMD8KCqJJF8Ya2Rj0RwQLoBBwXgXrB8SA2Njvh1vZN4FuaEOXqaQeo0slNcZIg07OzsajaapqenatWsymWxjY2N2dhZJshcvXnzyyScfffTRz3/+8/fee++nP/3p+++//8tf/nJMTMzCwoJCocAqEvpXtXeo9w6Umf/iMtwll8u3t7clEolcLlepVLK9Q61W45q1tbX19XWpVKpUKvGTUqmkh2s0GplMJhaLsRuSRCIRi8UKhYL5rltVpgrI5XLUZHNzc3Bw8Pz58++7ophSEGDgKD0CksdJ5ngL2AYFQRkWkzBAc5cYCEK/KHQBnEPLoIMmkwmfbiZwQqUBJAIPpr3BCYBDaBYZbhqEYK4TiIWC0AQuCA2FBg8xrPiJaX9hu/Fx15SUlKWlpYWFhbGxsdbW1tzc3MDAwGeeeeYb3/jG5z73uXvvvff+++//m7/5G6y12dzcVCqVhKitrS3ghACJgkqlUqvVCoVCJpMBPCqVan3vUKlUCoViY2NDLpdjZ6319XWZTKZUKoFP4EoikczNzQGrW1tbACe2VZTL5fRShUIB0KJWHwaEXk1g/imXy8VicXt7e1hYmFqtRoyHwqvoO1J2SBuQg53EBZA5eVAYW5AMGjLBQoIWAGz4F4QD+4XAoZIpZsbqgHBAEf9ixpbgRxYS0VCmBwGqUT2yyTC/FJgBYtEQMrOEahodoYDBDLWXKDsqTA+hcSlTAWlCBxWm+iNdgSkuCJAQTmInNQGhwQPxHOgmzjMrc7gG+djJAfIhl4YC/CgZRAiaJq2pkyh8Aj8KKFBmJTg1sRB6K6ZCAQigH1OMoLF0F70OQTPgD1OYeCbZQYPBgAgNCBC8BX5Fc0CcAVwABe4B2ggngXAFrmF6Hag3agWtJo1FE+AnUFsKUWBMDDEyU/1JCNBqkBtwbUo4x0+QBhwh3XVg4UCDBWXGNPD58+ezsrKOHDnyox/96Ctf+cpf//Vff+r/Pz7zmc989rOf/du//dujR4+mpqZmZ2dn7Tuy/3R4/cL+05G5d7BYLHzEIDk5OTMzk81m47vt+GhqWVlZbm5uRkYGm83Ozc1NT0/ncDhsNpvFYuXk5OTn58fGxnK53Pz8fHyxqLi4OC0tDQ/xeu+H/BMvzc7OxubZGRkZ6enp8fHxzz777MLCAuVv7hc4BAuK7Ha7kVMJ90DjP9zF1CmgDqnBmHzEyBhhYeCKhrbE1PFAXEPoJYwhWo5FAWRecQutikJNMOLHW1ATqDbmkhBvJ6JDM0c4w0QvdPDAwBI1FmMJ1AdTqEqlsri4+Ny5c1wu9+233/73f//3hx566J694957773nnns+9alPfeYzn7nvvvvuueeeL37xi6dPn87Pz09NTU1JScnNzS0qKsrMzER3/wlrf/wf3cdisTIyMkpLSxMSEjIzM7lcbm5uLovFQjkrKys3N5fL5ebk5KSmpqalpXE4HCA8MzPz+vXrGRkZOTk5mZmZ6enpGRkZgHFWVlZKSgo+UZSWlpaRkQH4A4ocDueDwc+r/l5/ZmZmZmRkxMbGHj16FGvpyfDCEx+IRuoUIARjJFhIyg4hM2u1WtE1TIjiDOBB3Y0wCaBIkT+An6BIsV56GuajgTGatnO5XPgaFDguORe0DuqAEBEZdjyQoomUjYeguFfwhhlTwRMAQmASvAQ+gmJmJE94LkTWqfKwvXgUHkJCI+NP3oe2aUY1KPcAc5dQFkSS6N79/UhnfOyERPH/CmRcqDO8zkCy9Cuz57yuJKzTxVTA+wBxegJOwh8gwgYNQVSDYAQ+AUwAB3gRcwsgplEm+wujT/4GykyUFvEVqB9uh+PBZdhbGtQeunRgW7yEgwZ6nfx/st4rMYVGRAqNZf7k9Tqvh+DPG7ETfHKotrb2xIkTCQkJzzzzzD//8z8/9NBDDzzwwKc//enPfvazn/70p8FS7rvvvvvvv//BBx88e/Ysn89vbW1tampqbGxsaGhobGxsbm4WCATNzc10suH9jqampvr6eroKj2poaGA+gZ6Pyxr3Dj6fjwJONjU10UNubaGxsVEgELS0tAgEgoaGhrq6uurq6pycnFdffRUfFj5Q1ARaMjQ0m0adSNQWGTxAKaw8DWQpl4KYN9PuA/mkEUxUUwgEMWoy9FgXQCBHuBtNoMkIrKegxY1oC2w33ghLCpxDfXAvkx5BL/YLh0BLPB70y+12y+XynJycEydOcDicF1544Tvf+c6DDz4IdnLfffcRCHHmS1/6UlBQkEAgqK6uxrdj2tramJBgwoB5vqmpic/nA7GEN8IYrgQmmXfRGeZjUa6vr2de6VXef/2HPwOtycnJeffdd6VSKfFIQt0hYidDQQaTeoR+YhpePIr5E12Pn25ki+gWsvPMWpGRRAGQwy4JRNBBbiguTjEYZjPJhCLWQlNC+JPICpZtgsRgbEzJW/AXCNuTclEbqRXMgleTqT5kyXHGS3TMy8hrMF/EvIApqwPLPnZyoFg+sZMERNQAzAOmDcmzZDQRXgOGgH7CJew+fgJDJ5oMc+nFzUlRyangjYjUIZoNfCO8QS/9xMR0gxcTNaGJHroQW6o3NTVduXJlYWFhcHCwvr6ezWYHBga+8MIL3/ve9/7xH//xc5/73Kf3jvvvv/8f/uEf8F06BMPlewdzlkehUOAnxV/+IZPJtre3EeqXy+VSqVQsFnd3d58+fXpzc5PIBwlzf4Ekz7Q+sErgvkARzCXic4RSBPkQtIBFA8AoasI0mgA5oRoUBNFjrNaGucc23oR2FJhT6Xg7PjeI+VA8BE0jd4JxJHgJWXxEuWlyCrccIgG4LtB6nU5XU1OTmJg4Pz8/MDDA5/PZbHZAQMBzzz333e9+9wtf+MIDDzxw33333bt3PPzww7GxsWtrazKZjOYH//LhdlMtkMlky8vLra2tly5dwswOumw/9m7DM2R/iFQBwzC8lC0A1cBPWKZOKSOUK0NagElG4hlQIiIoiNzDPsPaQ1xQCppkuQ1ldUiVfOzkEOF8Aj/R2A4FwjQifqDYRBpg8cnyYsMG5OsB0yAZGL8iyQvWH7mxICUwyuA6MPo0gkQGAO1cxFw4A736BAR06CvJQ5B1oMuxQLGlpSU9PZ1yk9Vq9fLy8uDgYFVVVVZWVlRU1NGjRx9//PFvfetbjz76aFJSEn2tCv4S3cEs48xf+r/oTYph4FORk5OT586dwxfgSIw3KpDkmewEE/CUtEQ5H5Sf5LWQHoE6AJI52Qc7C2ZDcEWBiDste4E/oIxIehrlfdPEK3N9AU5iX0HoDlF2WtoNegFNQZXwcMjkQAngMugyvItWq21qasrPz0dyA7aJW1xcREosi8UKDAx85ZVXfvrTn37zm9/8yU9+kpqair3IQJjAxv7S8XYz9cemO4ODg2FhYUqlknqNog43guLtcJ7sD9gDgI2sdpyBCoCRY9qI8lEovkiwAbdg4h+TIziP76s0NjbW19dLJBJwaMqGQXyRafxvZrBxO8gQcjAajUNDQ6GhoQiakpZ9gMKnPsA9H8MtHo9Hp9O1trampKTQNCEibLdJN1A1oHuwuYAgWSXoJ1ZD0KZeSIOi4SmwyBwjwgTTWBOzRdiuCvYXg1EkfoPZYJkl8I0sEEzn4yE0r4kpf6r57VBgYsmrPvhGcUtLS0ZGBtgJGk6zYyaTSSKRDA0NFRcXx8TEhISECAQCtVoNbSd7SqNqOnNnFJgwwzrDmZmZCxcuiMVimiLxEinzT5I8k53gs5EYyWGdAjPy5/F4sO0yBQiZ7ASKgLkeMtMIcmCt6crKyvz8vEgkEovFGGhi+IgbsaH+4uLi3Nzc8vLy9vY27qVH4RYwBkRBsIYFjB81AU2HUlBN6PlADuyJ1/oRggS1He/FwrHa2tr8/HziVZhIwhvxEaLe3t68vLyYmBh8wIUW4lG05s7jxyQxZkGn0w0MDAQHB8tkMkiSjNVt7mKZ7ASsAhv/EKpBWzERj010YF0xwqSYH1BBq7jBYGjGBIBXqVQCgeDY3oFvTQNRMNpEoyE6isQwlfe2LftiJ7dX10A5MYMO0wnb7fF4TCYT1h1AURFepqkW4B77NsIUUhovGAzMrsViwdpO8sr0fJhLoBkciJQEUUcQHfIlZJdvHwmSjyTrQHVzuVxQ46ysLNSc7B0cDwJFiEvRyAM/wRngUUx2Qg+/AwpoF3ocFHZhYSE4OPjw7+xQw0nyTHaCbxtNT08PDw+P7h2Tk5Ozs7PLy8u0XTKINTN3m+oA9kwkADXc3d1dWlpqbW3Ny8tjs9lFRUV1dXX4HLfBYMAOsC6XSyQStbe3FxYWcjickpKSxsZGRMLR6Xgm1s2SXuD5iNlgLTHtUgWvAGxgSIcylA5COFAChBZcg68JVlVVZWdnY1cCxKtoxTiFrzDMwGgbdYZfQfk2982Eig9TAAft6+u7dOkStqWnaNbt72LJ/gBplCcOPkHhbfQmVlQhaRq7oeACmgCijSgxKMUwFUC1Wq1yubympubHP/7xT37yk6GhIZoSoiXiEBecAtOUfZje+Xju9bGTj0fON/sWssg0ZMeACXFOjGJhTzFcwzAXyDaZTNiTB2YaxByGjKg69lem7YCwbg2xFmzvTeFHEB1sMY6vbFCUEjYXGe8327CP5TryEGQd6LXYK7ahoSE9PR2+kLgXDejBz5AajJPkOxHDpz+ZpJDpPm/n8iEujcK/1C6z2Tw7O+vv77+xsXEzNJQkz2QnFoulsbHx1Vdf/eEPf/ja3vHiiy++9tproaGhIyMjKpUKy8fwpSrkDDIDFVABoB1l1CQoKCgsLCw/P7+lpaWnp6eiomJ9fR2XafYOi8Vy/vz5gIAALpfb19fX3t5eVFSEPc0AXYwjCRuoM+azqLHQROzwjeEvBQvhHkBQKLB0oATwEOYAAL4kLy+PAvj0RqoPhUIxwNDpdNi/HxeQibidwfbh64bQ2tDQUHh4OH0FkCjaIWAmMX6CBbI/4K8mkwnfe6fFxtj0AV91KC0tHRoawscXMS4l44++ZnJWQIIWRWLncaFQ+MorrzzxxBMTExM0AQQRMVctMVdrfoLCuflX+9jJzcvq47gS1pP2ooXJJsaws7Nj/L/sfWl4XMWVNpAhGZ4QkkmYkITvCRkIEBISEhhithhiJiwmBswWgnEIEIMxYBuwsY13y5a1WZJly5Zk7Utr32WtLWuXJbXU2iVb+9aSet/3bul7Ru/kzJ1uW7ZkIbWkuj/s0u1761a9derUW6dOndJolEolnKcobj2m+LC7YIBBNzabzThCFjdB4XHGDRgJjAT0MA3YVqsVq93EeLDxAcMY1LQLKggaIUg7UJvB76S4uBgDA/eoQjiawfJP6gAagcYtF6wsVe3aE2QrRlYw1LW0tOzYseNavGIhveXl5a+//npbW5tIJOrr62ttbc3Ozv7ss8+am5thskYEMGxchF6G8oXYQ+SglLHmuHXr1szMzLGxMZyOJhaL4XQCZoOPbtmyhc/nj4yMKJVKnCcFfxHMR9F9aJjH8qXNZsNJaUAD5aGFBq1Wi4BX5CcLgzyBT7LH5WfgGeC76INisTgzMzM6OhovglRB2Mh4SR/FM9AJuIlRnz66tBMqlQrsRCqV0kIz2trF+yPpH7AT6FV4TiBwA2ReLpfn5uY++OCDwcHB4+PjEDyFQgGpII1EQaEQ6AGWJASPhmy0tra+8sorv/3tbwsKCrAr02g0SqVShKSC5Rv3IUWLRWwYO3HFloIEQ/KgkXH2empqanh4OAIYuLu7u7m5VVdXDw8PFxUV7d69++OPP+7t7ZXJZOXl5Xv27Pn4448zMzNhTZFKpfn5+SEhIX5+fu+++663t/fQ0JBMJsvJydm+ffuHH34oEonEYjGfz9+xY8d7771XW1sLu3dHRwfsDbt37964cWNqaipiD0Dtuhp2NEKQdqAS2mw2qVSam5t78uRJuPeSpxiUAv1Jowu96zBa4Cv06xJI0DhNo6lCoWhqatqxY8f05+xQ3Ql5Qg+gmUymmpqa9evXYykHUUp7e3tjYmJSUlJEIpFWqx0cHDx37lx6ejoOyJXJZO3t7cXFxXl5eXQoidlsFolElZWVBQUFK1euPHHiRFFR0dmzZ0tKSsC/YYAZHR0tKSlJS0t7/PHHQ0ND8/Pzc3Nz6+rqsIxCG3mkUmlDQ0N0dHRoaGhxcXF/fz+6CSxkJpOpu7u7pKSkrKxMJpMZDIb+/v6Ghoaampq2tjYcv4wQVRqNhiwfl0QAZILkx263o9NFR0fjRRg1aawlwzsaAlZ6/AptQA8Q8ks4oVara2trDx06JJfL0UmJxhFirll90j8QAIvF0t3dHRkZGRcXl5mZefjw4cjISETv3bZt22233bZu3bqgoKCamhqVStXe3u7n5xcXFxcUFHT06NGoqCi4k9tstt7e3vz8/IiICD8/v6+++srPz6+5udlqtQqFwpdeeumpp56qq6tTKBTZ2dnbt2/38PDg8/kIBQtBgrnOxaHjNihjJ1w0Fj5N8yTuMrnJZJJKpRkZGW5ubjwer6qqqqioyM/P79577+XxeMPDw9XV1Zs3b/7Nb35TV1enUqm6urq2bNmyYsWKgIAALGnHxcXFxMSUlJRkZmbu2rXriSee4PF4fX19ubm5b7311s9+9rPR0VGNRtPQ0PDxxx8/+OCDOTk5RqOxt7c3NjY2IiKiqKgoLi7uD3/4w7p16woLCxHslWzaC4/aP0tAIwRph3/+MgGv2IKCgqCgIGyXgMUIAzMMqlD9NAAgIhMeI0s1FtRoDKb8l0ACUGB9WqPRtLa2XvEUQKo1IU/IkAVCIBC88cYbdE6Q2Wzu6+s7efIkyIfRaOzs7MQZAjAB6nQ6gUAQHBzs7e3d1taG+Z/Vah0cHMzOzk5OTn7yySe9vLzi4+Ojo6NxsCIm1nq9vq+vLzs7Ozw8/NFHHz127Fjc1FVUVISVEbh+t7e3JyQkBAcHp6enp6Wl8Xi8mJiYc+fOocdhab+pqSkyMtLf37+0tDQ7OxtHrkRFRcXFxWk0GjLAwDMMIFwOAQSpw8AAX93s7OyoqCjMp7lCiAUgAIhWAEfBcILWAaoE+9JOqNVq2E5kMhkqDp1DPdRlq0/6B/rcZDIVFRW9/PLLlZWVjY2NJ06ciI6OHhgYGBoaOnny5D333LNt27a8vLzu7u7+/v5t27Zt2bIlLS3t7NmzO3fuXLt2rVgsNplM4+PjsbGxAQEBZWVlBQUFO3bseP7550NDQ1UqVXNz89q1a5966qna2trOzs6wsLCDBw9mZ2dfvHgR2zNBgmmFyGVxcygYYycOgCzwn7AEIh4aJBuW7Y6Ojtdff/348ePt7e04Z6GwsPD6668/c+YMDOZHjx6955576urqYLX29vZ+7LHHfHx8zGZza2vru+++u3///uLi4tzc3MDAwFtvvXXDhg11dXX19fUfffTR9773PYVCYbfbx8fHDx48+NBDD2VkZBgMhqioqE8//fTw4cPFxcVZWVmrVq26++67fXx8rtJTcoGh/L+ft9vtOLI1NDQU01YycnInEzQGYDihsIZcdoKM6fX/+x1X/4sGUVKglyyxXq9vb2/ftWvXtdhOMNw2NjauXr06JSUFwcESEhL8/f29vb17e3shq6Ojo5GRkW+//TZYr81mGxgYSE5OPnToUH19PcK4werQ2NjY0tLy5ptvxsXF1dTU1NbWXrx4EZ6wcKWSSCSdnZ2lpaWvvPJKSkpK3dTV3t6OU7iNRmNfX196enpAQAC2X46NjVVVVcHBtqamhg5hGBoaysvLO3DgwKZNm44fP56WlnZu6iouLoarFjzN0UMBIAHrwM/IuALCIRaLs7KyoqKiuF6KxAu5kgkBo9fxleXGTurq6g4cOCCVSgER0HB9dkKNBQnRarXR0dE//elPS0pKJBJJe3t7R0cHjh0oKip64IEHAgIChoaGzGbzwMDAu+++GxER0dPTMzY25u3t/Ytf/KKiokKn02VkZHz11VfBwcHYjFNSUvLFF18kJCQolcq2trZXX331D3/4Q2xsbHZ2dmZmplAoRJhjuCTC/RYbgi7Z313zJmMnrtUu1AmxSg0NpVKpzp0792//9m+5ublqtRqh7ktLS2+44YbQ0NCRkZGBgQEfH5/77ruvs7MTyxZ+fn5PPfWUt7e3VqtNTk5+5ZVXNm3aFDR1+fn5rV69+osvvqipqREKhZs3b/7+97+PI8KlUumhQ4d+97vfZWdnm0ym9esdASg8AAAgAElEQVTXv/HGG/v27QsODj5x4sRnn3324osvnjx5cnBwEOV0LeymLQ1sJ0VFRSEhIVwdN/0gPW2Wi/JHGkRRcQiY8786na6trW3Xrl0ikehq6knZOo/NjY2Nzz777M6dO/ft2+fm5vbRRx+9+eabYWFhPT09IH8Wi6W8vPxvf/sbDAlwA29pafHx8WlubsbpJLRDYWJi4sMPP6yqqoIzB7xMMFzBfG2xWMRi8fr161taWui0ZOyx1Gg0+fn5p06dSklJGRgY6OvrQ9y5ysrK0NBQDw8PGG+wjbOvry8gIGDlypX5+fkqlYroKRQ91oC4w+QlEXAGViqVZmdnk9/J1WC7PJ9BZGqhUHjo0CGpVEpy5cod9pIyAGfBxMTE3/72t++8805SUlJHR4dKpTKbzXK5nM/n33fffX5+fkNDQyaTSSaT5eXltbS0YMP84cOH7777bh6Pp9VqP/vssy1bthQWFmK+ajKZOjo6RkZGrFZra2vr2rVrV6xY8d577/n6+tbU1GBiAJsihhJI9eKSJcZOXKu9YDuByypNJQcHB4OCgr7zne9UVFRAyCQSSWFh4XXXXRcUFISgpcePH//Nb34zOjqqUCiUSqWHh8fKlSs9PT3VanVQUND777+fmZmJvQZ01rbRaKyvr9+6deutt94qkUgwVPj5+f32t78tKSkxm81PPvnkZ599JhQKoRpw9CBt/kSAONeC7/KlYewE2JACnQd2gk3aTU1Na9as6erqwlYyLET6+/t7enqOjIxg08H58+c/+OADnD8C4W9ra/P09Ozo6BCJROTBDSvXhx9+WFNTA5lEf8G/2AaM3RB//vOfMX3EDJKcbY8dO/bhhx/6+/sfP3780KFDWLIJDw/39vb+4osvRkdHEXINy5qpqamnTp3C0AiXVfwKJPFR2shDwNI46kxNsHGMsZPLd9P//WXJsBOIwcDAgL+//2233Xbfffft3LlTIBBoNBqxWFxZWXnvvfceP358bGxMr9eLxWKDwZCfn4/Dtj7++OOf//zneXl5Op3u+eef/+CDD2pqanQ6nUwmwxwVR5i1tra+8MILd9111w9/+MN//OMf5eXlxE7otDVaGuOaiv8XbpdMMXbics2CeR4s1ZhNDg8Pnzp16uabb87MzISRQ6vVlpaW/su//EtgYODY2FhPT8+BAwfuuecegUCAjY7+/v5PPvnkgQMH9Hq9u7v7008/HRERgdyw5Qzatq6u7vPPP7/zzjuHhoYw6dy3b98999wTGhpqMBief/75Tz75pLq62mq1Yn8EzNHOGzJdDkSnAjF2AkhoEJ0HdgI92NTU9NJLL2FtRaPRIBReV1fX22+/3dTUhCBUBQUFb7zxxuTkpFwux+aCjo6OY8eOdXR0DA8P46gpcsJYt25dRUUFqDbWWaB5idlrtdq1a9ci9gN8TRD7wWg0BgQE7Nq1Kysrq6amJisri9abMjIyCgsLcVIJNmEODQ0lJCSkpqYiGBrt4cKWN5yjRtTkctHYnAkKs504dc1L31gy7MRgMGDXmEajKS8vf/LJJ++4446PPvpIIBCo1eqSkpKf//znAQEBo6OjBoNhYGDA3d198+bNdXV1er0+ODj4zjvvRFjI119/ff369bm5uZB8+C3BpNfY2Pjyyy8/99xzn3/++VNPPYXtEThVh2KywUeKS68vjbsr3WXsxJVaY+K/nTfhwYQFSzAJiUSSmZn5ne98x83NrbOzExEnU1NTb7755qCgIKzseHl53XPPPSUlJXDwdnd3f+SRR3x9fU0mU2xs7KOPPvrxxx83NjYisI/ZbM7KyhIKhbW1tZs3b/7Rj340PDxstVoHBgZ27dr14IMPZmdnazSa11577Q9/+MOxY8dkMhmCLjc3N1dUVPT19XFX3F0LwcuUhrETADOf7AQTuJaWljfeeAP7G7GFGGF5//GPf9TV1SGMd0lJyYcffsjlzQ0NDZ6ens3NzYh2D12MED7vvPNOVVUVuAgoC04Cxx5gm82mUqnWrFnT0NAAog/vFuj07OzswMDA3NzckZERnJ0km7rGpq6JiQnsLcL+iPDw8JSUFLFYTFtFaFkHO5zRVR2AZbaTy3TBmd1eMuwEU7v+/v7z58+rVKrGxsZPP/109erVvr6+CNN+7733+vn5jY6OGo3Gmpqau+66y9fXt7OzU6PRBAUF3XXXXbm5uRqNZv369b/73e927twpFovhmNjX19fe3j4yMtLS0vLWW2899NBDWVlZe/fu/a//+q8dO3ZIJBLE+DGbzYizQlx5Zi2xcE8zdrJw2F/qyzBOwKuDzgqGE8CqVatWrFjh5eVVVlaWm5t74MCBf/3Xfw0PDx8bG1MqlREREbfffvuOHTsKp64PPvjgV7/61caNG3t7e7u7u3HG2D/+8Y/IyMj09HQPD4+IiIi2tra+vj5/f/9bbrnF39+/oqIiMzNz/fr1d999t7u7u0gkCgsLW7ly5aOPPnrkyJGsrKzTp08fPHiwqKiI4rtfqgYueo+xEzTMfLITxJytqKh49dVXoSslEsnY2FhfX19OTs7777/f0tICvlJVVbVz586SkhK1Wm00GhsaGo4ePfrWW28VFxfj/GGE6tFoNCqVasOGDfn5+RKJRKlU0sINBZ9VqVTd3d1vvPFGeXm5XC6XyWTw+Ebg1+7ubh6Pd+LEidbWVpy8Y7FYhoaGiouL+Xw+olAg2lB7e3tERER0dLRIJFIoFBqNhvYbI8L95OQkIuU4AMvYyZyogKXETuRyeX5+/r59+2C6CA8P//vf/+7n52c2m0dHRx944IGPPvooJyens7MzLy/vm9/85tq1a5OTkwsKCj755JM77rjD09NTKBTGxMSsXr36wQcf/Pzzz0+fPh0UFMTj8Wpra2UyWUtLy8svv/zwww/X1NQIBILPP/985cqVHh4e2JCPoy7BsMHU56SB5iETxk7mAeQZfIJsEiAo5OgnlUqDgoKefvrpdevWeXh4hIeHHzt27MYbbzx58uTo6KjFYqmsrHzllVfWrFnj5uYWGRn51Vdfvfbaa7t37+7q6jIajTExMW+++eazzz77zjvvfPXVV25ubhUVFVDcBQUFq1evfu2113x8fFJTU3fv3v300097enqOj4/39/e7u7s///zzL7744rap6/Tp093d3RTVbQYVW+hHGTtBC8wnO7Hb7d3d3UFBQa+//npWVlZGRkZiYmJKSkpaWlpERERkZOT4+DjC6vT09MTExBw8eDA+Pj4tLS06OtrDw2Pr1q3h4eF9fX3wO+nt7c3IyACt8fPzS0lJycrKqqyshCsrwgL19vZmZmbyeLy333771KlTqVNXSUkJIqdh4aa+vp7H46Wnp2dkZKSnp589ezYlJSUuLq6srIxczuvr6yMjI93c3Nzd3dPT01NTUxEWBa5g5MWC5VEHYBk7mZO+vpTYiUQiycjI2LhxY0VFRVNTU3h4eGBgIERXq9WuX7/+7bffDggIEAgEdXV1q1atWrly5eHDh5OTk93d3Z999lksr/f19QUGBq5Zs+aPf/zje++9t2PHjtTU1O7ubolEcu7cuTfeeOOFF15IS0sbHh5OTExcs2bNX/7yl/z8fJFIBAsK/MoRTGFOGmgeMmHsZB5AnsEnuMY3WI9hwdZoNGNjY1FRUfv27fP19c3LyysuLr7pppsQV41Cje3YscPX17e8vLy4uDglJaW6ulqpVFosFixw+vn57du3z8/Pr7+/H/vgESIiKytr27ZtJ0+e7OzsrKmpOX36dE1NDazo/f39ycnJe/fuPXToUGpqKsg4jh2ZQa1c4FHGTtAI88lObDabUCj08/Nzc3Pz9fU9fPjw0aNH/f39w8PD+Xy+VqvFCKRWq3U6XXd3t5ub265du/bu3ZuQkCAQCIqLi6OiolpaWmAgaWhoOHLkyIkTJ9zd3b29vY8dO+bn5xcbG4sYawhgWFdXd+zYsZMnTx46dMjHx8fb29vLyysuLk4ul2PdBw4oQ0NDSUlJe/bs2b9//9GjR8+cOVNdXQ0PGLPZPD4+npOT4+HhcfjwYR8fH19fXw8Pj8jISKFQiLV8WvLn7lwjYBk7mZPuvmTYCZYaEcInMjIyJSUlISGhqakJJjqtVpuamurt7c3j8Xp7exUKRVJS0uHDh0+fPt3S0tLR0REaGgolr9fr+/v7U1NTocNBRPR6/eDgYEFBgY+Pj7u7O4/HGxwcbG1tDQwM9PLyOnPmTHt7O2IGYqcPxpc5aaB5yISxk3kAeQafoI0AWFDHwrZer4czLBQfDgQpLy//7ne/Gx0djY0GeB7mO9KedNo7nFEgmthrwz1QHnGosJAEqzVUA0VfgEUHRAdhvxeXdxVwk8vlbEcxDaLz4xULecb5kRAwGB50Oh08maxWK4LEYyMxl2pIpVLwYMgznXxEofO0Wu3o6Ch6B5Zd6BRfjUZDy+0YBnD4Jb6Lc6NgKUEJYYCBiwBmBcgQJhmKI0wbm9FNuB2bgGXshAvLrNNLhp3Y7XbsdoTcQgJhDiR2i/VNbP3FLhtydUJUYkTiwWNKpRIJqGVYHxFFkNyhsNcd8SQh2+h3i0tvM3Yy6+7zdb0IVz4oR+5RYTBmYEuOTqcrLy+//vrrIyIixsfHsRkHJwJC4kmtQ6yx8R3v4iBA7KdAJFnsksABIsRU4A0OPxjMOKHHqWBfV/2/nnyZ7QS40iA6D+yEWDKUJpYp4SoLLWm1WmGxgByihDhMBBM+GKKxMQejPvg60QUc/wQ1zc0KRwXRZh/aRY+vQ7bRBUDZsUaDgQTFxnGyJIx4AGMGhhmHjkDAMnZCoF1LYsmwEwg/tjvQwfLY9giWTIzBaDQqFAqARgcUE4Z0XA40PGyB0M/0DJFsMHLyB6e1SIwU9LyLJxg7cfEG+u/iQYFiYocAUwKBYPPmzTfffPOnn37a3Nys1WpxpDCED+JLoaKQII1MGhY54z5QoGfwRfrX+f4iQO3/FpGxE+BBg+jcshMu2CQ2V5Mg0aKgqLRtDWJMwkwdge7jjrPMIysQERJy7usoGMrMLSQdRML9qMNjl/yT7SjmCsCcpBcjO+FWnCtXxIPJpEG/cukCGRohh6TAkS0oONeeTZnQd7n5U8/iPoY0Pe/iCcZOXLGBLjeEkPW7o6MjPDx827ZtcXFxw8PDMAm6Yk1cpkyMnaApLidapMKQmGmsWJdp5wUrCAHrTIO42LJ4J1fZQoudnVxlNdlj0yDA2Mk04CzYT6TpHCa4NpsNoTClUmlvb29ra+vQ0BBWfBasrIvkw4ydoKEuJ1rcERSrgTOKZL9IpOBrLCYBy9jJnKDM2MmcwLioM2HsxBWbjzSdAzsxmUw4XgTrizAALsbIrfMPOmMnwPxyosXYyTXKJAHL2Mk1IonXGTuZExgXdSaMnbhi85Gmc2YnWKdEGCisRML92xWr4UplYuwErXE50WLs5BqllYBl7OQakcTrjJ3MCYyLOhPGTlyx+UjTObCTiYkJREKjfb9Qha5YBxcrE2MnaJDLiRZjJ9cosAQsYyfXiCReZ+xkTmBc1JkwduKKzUeazoGdIOQUDnaCDwqZUqxWqyvWxGXKxNgJmmIa0eISFOYVO1PJJWAZO5kpdJd8nrGTS8KyrG4yduKKzU2azoGdcCOO2Gw27J4nbeiKNXGZMjF2gqa4nGhxqQnzip2F2BKw1B8dIMWfbM/OVWLL2MlVArWEH2PsxBUblzSdAztBAChwFMS2orPjXbEarlQmxk7QGpcTLYehlNlOZiq8BCxjJzOF7pLPM3ZySViW1c3lwk4UCkVBQUFAQADiuDtEtnFQzQv+p4MIUnkoxjbt2UGMcARYo8ecE9zAPviVG7fH+fmld8dms8lksoKCgpCQEARH4mLiAPgS/hODKFWQhIGWCHFHq9U2Nzd/+eWXIyMj9PAlE0tPVGZRIwdkuDlA1aCHWq1WqVSak5MTFRXFfQZph0yW7Z+EjEajqa+vP3To0Pj4OGKLIVLw9PyPXl8UCW4rOxQY1aSOCX0FHJYSAg615v6JM1uqqqr2799vMBjsdjvNAWaRuG4W78zDK3a7XSqV5ubmBgQE4Bwvm82GuNdcLJZwGrQGPQHijtjGML0s4YpT1Ww2m0QiycvLO3PmDHZiU4RpkBWumliqaeprDhWkOO60/0ur1QqFwm3btoGd0IsOiWWiJUmKZprAWILjriYmJkwmk1wuz8nJiYiIcIbOoVGWz58kVKgygaxUKs+fP+/m5jY0NASzMY7UcIaOXll0CW4rOxfearUiYj3ibSJuvdlsXkoIONea7thsNqVSWVpaupTZiclkkkgk+fn5ZDuZnJzEnIY6xpJPUJPjNDWyndhstiVfd1RQoVAUFhaGhITAoRjTWaydcXXEEk5TQzvXET9ptVroPp1O197e7ubmNjY2Rm+xxEwRADuht6Btc3JywsPDnQcY50ZZJncIH9QXmspiscjl8rq6OrKdTE5OYjZFzy/tBJlJAAs09tKuskPtsLp3/vz5gwcP4rAthwdm9KeL2k5gIOLz+ceOHUNAM7PZbJq6aJCmwXvxJqbXZRaLBXHbYCKDjRRnkSzeKs+o5FjdO336NEWLoXB200O3ZH6lzuxQIwBit9tx/KnValUqlc3Nzfv27evv7ydvp6XUWWYkOdM/7AAm90+ucxiOFZTJZJmZmaGhoYydEFAOYgm04fXf3Ny8d+/e8fFxOmgXB0NO3yKL6FcCwVkewE6wT5P2Q0Bvw6CyiKo5u6KazWaFQlFdXb13714caU6iMouE67ITjUZTWFjo6emJZuYuBs8OOFd7iyvlzmmc/I7VHPK8WVaDDVZ2cnJyTpw4AW6K6sN26ozYkrxDXdqhdmRANhgMIKwajQaR7IeGhqaRE2eV6mr9Yh7K4wAm90+a/tpsNqhXmUyWkZFx5swZ54kB98VllXYQSzQZsZOdO3dKJBKsw9KRvPPQrPPzCW5DO38RoxXWWzFmkRuK88NL7w7MCpWVlbt27VKr1RaLhURlFgkXZSd2u12tVhcUFHh6epIHBikOrnws1TR6NaqMwQb/LtX6OtfLZrOJxeLc3NyQkBDMPwiH5RMqhrq0Az4wmJOHtdVq1ev1HR0dn376aW9vLxSis+5zyGR5/ukMi8Md4naY9I+Pj6enp0dFRdHMmJ5fngA6HO/M5bs6na6xsXHnzp3j4+MkhEu1t5IYIAFeYjQaDQYDhbayTF3Lx0/ObrerVKqKioqDBw9qNBqr1UoabBYJF2UnFotFKpVmZWUdPHjwwoUL3d3dPT09+Le/v79vGVzd3d29vb1dXV3t7e2Dg4N9fX240z91LQMA/ru+9fX1SUlJUVFRmItgqQvLFstkYKAu7VBfKESr1YpIxPi3ra3tnXfeKS0thaj0/vNaDtIyozr2XP7q7u7umrr6+vouXLjQ1dV1/vz56Ojo+Ph4CB53THJolOXzp4NYkjQqlcrq6uovvvhCIBCQ0u7u7l6SSvuf3eu//4dAXbx4sbOz88KFC729vZ2dnd3d3RenLjw5IxFdpA/39PQ0NzdnZmZ6eXmpVCqz2UyiMouEi7ITg8EwMjKSlpa2e/fuxMTEhISEuKkrMTExJSUlaalciVe6QkJCvL29MzIykpOT4+LiEhISkpOTExMTlwoA09WDx+NFR0cHBwfzeDy1Wo1JiV6vNxgMcBNeDoMBdWmHytrtdovFAscIvV5P7GTDhg3R0dEQEhKu6VBelr8lTHtB1SQlJcVOXWFhYSdPnkxLS8PR4oydXM52YjabxWJxWVnZtm3boqOjSWknJCSkpqYuJUGjnoUESRM0c0JCQnBwcEJCAkYuKO2EhISlhMDl6sLj8aKios6cORMYGCiVSnU6HWmwWSRclJ1MTk7q9frW1tbk5OT09PSUlJT4+PjExMTU1NSUlBQH4VikfyYkJMRf/kpISIiKitq/f/+GDRsgCjExMTweLyEhgcfjLdIqz6jYKSkpWVlZhYWFzc3NJNkOg/SS/3OaimOYpKHCYrGIRKLw8HBwWZIsUp2UmFErLL2HCYdLJpKnrsTExLS0NNQ9NTU1Pz+/o6ODy0sI/CUvgZesoINYEhpGo7G/vz8pKSk9PT01NRUIp05dS0OQuDJDXSw+Pp43daWlpaWmpp44ceKtt96Ki4vLzMxMT09Pm7ocJgxLAw3nWsTHxycnJ+fl5VVWVl7jss7k5KSLshOVSoV5oUqlkslkWq1WpVKp1Wr8qVsSl1arVV/+0mg0g4ODaWlpvr6+crlcq9XK5XKVSqXVajUazZIA4AqVADZarRZOwTqdzmQywQnJZrNdUmkuvZsOwwBVkMYDOEkYjUadTmexWDRTl4NY4Sb9ewXcl8HP2mkvlUqlVCp1Op1Go1Gr1RqNRq/XG6cuckkh/KlFllXCQSyBhsFggBCq1Wq5XA70oLclEolWq10yksUVH+pWGo1GLpe3t7eHhoY+9thjQqEQwqOcupaJ0gYaOp0OHuUGg4FEZRYJF2Un2Elrt9vh9gzppz+XjCKgel0ygUipQUFBWMjAloElU/crVgTNTQ5lxEuA1RVfX9oPEAhIwIcaWF1Slrg3lzYy1147CB7X2ZNA5sJIknntX1zsORA+0FTOESMRqWixVxPld9BLExMT5LNvMpmEQuGOHTvuvffeixcvQmPDW26ZSItDB7lG84mLspOlIcfXUgt2ysy1oMfeZQgwBBgCc44Ad/SlDZXcRFlZ2csvv/zv//7v5eXlGo0Ge3bIn3rOy+P6Gc7CZEKvMHbiou3L2ImLNgwrFkOAIbBcEQA7gV0NBkvaLw0zf05Ozu9+97tvf/vbwcHBY2NjCEmHzcbLxHziIBpENWaRYOzEAUxX+ZOxE1dpCVYOhgBDgCEwhQCt+nFP/gI2ZrNZo9FERET88Ic/vOmmmxB5CPHNscOOsZOZEhTGTly02zF24qINw4rFEGAILFcEHJxOYEqhOGwXL17cs2fPjTfe+O1vf3vVqlXNzc0Icu3w1rICb6aMhPs8YycuKiqMnbhow7BiMQQYAssVAfAMOtMAMFBc7+Li4jfffPOGG264+eabf/azn/H5fGxdIW+VZQgbl23MNM3YiYsKDGMnLtowrFgMAYbA8kaA6AhgIGeU6Ojoxx577MYbb/zW1AXXE+5i0DKEbaaMhPs8YycuKjCMnbhow7BiMQQYAssbAWyZ5oZ4wEFXnp6ed99997e+9a1vfOMb11133fbt29va2uB0smwB47KNmaYZO3FRsWHsxEUbhhWLIcAQWK4I0OmbSCCOy+TkpE6nGxkZ2bJly/e///0bb7zx+uuv/8Y3vvGXv/yltLQU8U6WK2ATM2Uk3OcZO3FRsWHsxEUbhhWLIcAQWK4I4PBhu90+OTlptVoRvXpyclKtVtfW1r7++uugJtdff/03v/nNFStWJCUlIcowTmxehrBx2cZM04yduKjAMHbiog3DisUQYAgsVwTsdrvZbMbeYKvVajAYtFrtxMSE0WiMiYl54oknvvWtb91www033njjdddd993vfjcgIMBgMJjNZr1ez3YUM3ayRPoNYydLpCFZNRgCDIGlhYDZbNbpdEajkTbj9Pf3e3l53X///TfddNOtt956/fXXX3fddTfccMPmzZs7OjrMZvPSAmAGtZkpI+E+z2wnMwB6Ph9l7GQ+0WbfYggwBBgCV0SAIpfgPEgs9ODQu+bm5rNnz8bFxfn6+v7tb3+LjY1NT09vampSKpUUk+2K+S+9B7hsY6Zpxk5cVB4YO3HRhmHFYggwBJYrAhT1FRt2rFar0WjUarV2u12v12s0mrGxsZKSkh07dvT392u1WpxubTabl9I5iDNq/JkyEu7zjJ3MCOr5e5ixk/nDmn2JIcAQYAhcBQJkOwHhwNk68I01Go16vV4ulwsEgj179ohEIpvNZjabjUYj9wjxq/jIknqEyzZmmmbsxEVFgbETF20YViyGAENguSJAodVw+LD1n5fJZNJoNEqlUiwWNzY2HjlyZHx8HGcXY0cxnFSWIWwzZSTc5xk7cVGBYezERRuGFYshwBBYrgjYbDadTmez2XAKoMlk0uv1JpMJbih2u12lUtXU1Ozfv18kEmH1h8U74RKOGaUZO3HRfsbYiYs2DCsWQ4AhsFwRsNvtWMfB9mCuKUU/dSmVyubm5mPHjonFYqPRaDabQWWWK2AsGttSbHnGTpZiq7I6MQQYAosYAdAR4hw4nXhyctJms5lMJrPZrFarGxoa3N3dJRIJHRZIMdwWcc1nW/QZGUscHma2k9mi/jW/x9jJ1wwwy54hwBBgCMwGAazjTExMkO0ECZvNptFoGhoaDh06JJVKKRoKwt6zaGwO5OOKfzJ2MhvpnId3GDuZB5DZJxgCDAGGwFwhYLfbNRqNUCgEOwF9Qdj7ufrEosvnihRkmgcYO3HR5mbsxEUbhhWLIcAQYAhcCgHGTpxRmYZ8XPEnxk6c8XSJO4yduEQzsEIwBBgCDIGrQ4CxE2ecrkhBpnmAsRNnPF3iDmMnLtEMrBAMAYYAQ+DqEGDsxBmnacjHFX9i7MQZT5e4w9iJSzQDKwRDgCHAELg6BBg7ccbpihRkmgcYO3HG0yXuMHbiEs3ACsEQYAgwBK4OAcZOnHGahnxc8SfGTpzxdIk7jJ24RDOwQjAEGAIMgatDgLETZ5yuSEGmeYCxE2c8XeIOYycu0QysEAwBhgBD4OoQYOzEGadpyMcVf2LsxBlPl7gDdlJYWBgSEkLHOizPeD4u0R6sEAwBhgBDYFoEGDtxhueKFGSaBxg7ccbTVe7IZLKCgoKwsDCQEjpoapkf3OAqzcPKwRBgCDAEOAgwdsIB43+S05CPK/7E2Ikznq5yh7ETV2kJVg6GAEOAIXAlBBg7cUboihRkmgcYO3HG01XuMHbiKi3BysEQYAgwBK6EAGMnzghNQz6u+BNjJ854usodxk5cpSVYORgCDAGGwJUQYOzEGR0xYmgAACAASURBVKErUpBpHmDsxBlPV7nD2ImrtAQrB0OAIcAQuBICjJ04IzQN+bjiT4ydOOPpKncYO3GVlmDlYAgwBBgCV0KAsRNnhK5IQaZ5gLETZzxd5Q5jJ67SEqwcDAGGAEPgSggwduKM0DTk44o/MXbijKer3GHsxFVagpWDIcAQYAhcCQHGTpwRuiIFmeYBxk6c8XSVO4yduEpLsHIwBBgCDIErIcDYiTNC05CPK/7E2Ikznq5yRyaT5efnh4SEoEAsGpurNAwrB0OAIcAQ4CBg/+el0Wjq6+sPHjwokUgQRRO/cJ5dXskrUpBpHmDsxHVlRS6X5+fnnzp1CkX8p/zbWaxY120zVjKGAENgGSBAYyrqSspZo9EIBIL9+/eLxWKK8W21WpcBJJeuIgE1iwRjJ5fG1BXuKhSK/Pz8wMDAiYkJkn67nbETV2gcVgaGAENg+SJAYy0ggH622WwajUYoFO7bt08qlUJXWywWxk4IrhklGDtx3Q6mUqkKCgqOHz9O1IRoiusWmpWMIcAQYAgsdQRolEVFoaItFotarW5qatqzZ49MJrPb7RaLxWQyMXZCcM0owdiJ63YjrVZbUFBw7Ngxxk5ct5FYyRgCDIHlhwCNsqg6VLTValWr1UKhcM+ePbCdWCwWs9nM2AnBNaMEYyeu27EMBkNhYaGHh4dt6mI+Vq7bVKxkDAGGwHJCgEZZVBrsxGazKZXK8+fPHzhwgLuyQxsalhNC/1NXAmoWCcZOXFdgTCZTYWGhm5ubxWKBfLtuWVnJGAIMAYbAskGAxlrUmMzbEomEz+d7eXmBncD1xGazWa1WTC+XDUL/U1ECahYJxk5cV1osFktRUdH+/fthG1yewu26zcNKxhBgCCxXBGisBQBgJxMTEyMjI5mZmUFBQXK5nKiJzWYzm83LU4ETULNIMHbiut3LZrPx+fw9e/YwduK6jcRKxhBgCCw/BGisRdXJdtLb2xsfH5+YmKhWq+12u3XqYuyE4JpRgrET1+pYJOXYnlNcXLx3716DwQDD4PJk367VQqw0DAGGwHJFgGwkDgDANdBms124cCEiIiIvL0+n02HPDtblme1kRrwEDzN24iBmC/wnsRMk6urqjh071traajKZsHiJbrDApWSfZwgwBBgCyw8BqGVSxQQAdg6bTKbq6moPD4+BgQGj0QjDidVqXc7xM2dBSugVxk5IwBYmQS0xOTlJ4UxgIzGbzV1dXcnJyRkZGRKJBNvS0DEWpqzsqwwBhgBDYBkj4DB7pLki3S8pKdm+fbtCoSBqgsSyxYw7wM00zdjJAosNt8Gc2YlYLC4tLT1y5IhIJIL5hMWKXeAGY59nCDAElj0CXCMKJpYTExM2m62oqGjr1q0Gg8Fut8NfcJnPJ7kD3EzTjJ0scD/jNhiXncCjSq/X19TUvP/++6Ojo1qtFouXy9lOuMCtxT7PEGAIMASmiAiiPEAbIy2TybKzs48cOYI/TSYTnE5YNDbuMHf1acZOFrircZuKy07gBmuxWAQCwbvvvtvf369SqUwmEzj7AheafZ4hwBBgCCxjBOj0HBizYSYRCoXx8fGZmZmwo4CdWK3W5RywijvAzTTN2MkC9zBug3HZCQTaYrF0dna6ubmVlpbK5XK2c2eBW4t9niHAEFjGCNDkkNiJzWYzGo0Wi8VutycnJwcGBo6MjMDybZm6zGazyWRie3a4I91Vphk7WeCuxm0nLjuZmJjAGQ0KhQIRY3t7e6lvLHCh2ecZAgwBhsDyQwDeJCAfWL4xm83wMjEajf7+/p6enhaLhVbhKeTJ8oPqf2rMHeBmmmbsZIHFhttgDuzEPHWZTKaenp5t27bV1dWhGyxwidnnGQIMAYbAskTAZrNheZ2cTqClbTZba2vriRMnYmNjLRaLUqm0WCxAiPb1LEvAJrgD3EzTjJ0ssMxwG4zLTrAPDdvolUqlp6cnn8+XSCTL3AN8gVuLfZ4hwBBYxgjAFgIbNv7FartGo4mZujo6OiwWi0ajofhsMIEvW7M3d4CbaZqxkwXuatRgKAfJPWL4mM1mjUaj1+srKyvPnDnT0NBA7ASBCEHhrVar2WyGK5YrxJOlWmB9Cm7tFDmR7KKXhJ7epVMq8BjVdDk7wF8SMXaTIbBIEaDOjrGc1kEoRgj8OVyhdlRUrk6DKcVisUgkEl9f3+zsbJ1Ox7WvQF2jFq6gmecfSRrgZpFg7GT+2+t/v8htsP+9O5WCWBuNRo1GYzKZ9Hq9m5tbenq6Xq+HlBsMBr1eDxJjMpmw6LOAcQmpLlwL0MTEhMlkojhypqkLa7fkJkYvOsSjo44NXoIeDhez5dnPHSSE/ckQWHQIUGdHyTHkg5pQB4exAQsoRqNxoQIoUFG5eglFNRqN2KRjNpv1er3BYKivrw8MDKyuriYSg8Sia6A5LzAXxpmmGTuZ8+aYQYbc1nJ4zW63G6YumBD6+/vT09OTk5Pb2towuovFYp1Oh6UfUBOEa3PIZ37+pHhE+JxDz8SeOi6lsFqtYCoTE/9nYZLLbEhzweMdFlRMXEwm0/zUi32FIcAQmEMESOMhT+5Yzt2QCGMwtISrsRNMq7RarUql0uv10GN79+5NT08fHx/n1oir8eYQw8WVFbX4LBKMnSxkW3MbzKEcsByYTCaj0QiC0tvb6+vrGxERodfrxWIxphpKpVKlUmFQ1+v1ONzBIat5+JPYCbdz4rt2u12v12s0GqPRiLUns9mMKQhsKg4gUA5ardZgMIB+wdKL+QotY81DvdgnGAIMgTlEgDo78kRnxxG+BoMBRmJ0dmzTncNPzzQrKqqz7cRut0M7GY3G0dHRhoaG/fv3C4VCWsEhJTbTjy6957kwzjTN2MlCygO3tZzLQUsb4Bwmk6mgoMDPzy8jI4M2rVFYFKVSSWu3zlnNzx3qkw6TBvIgQY20Wi05tE9jO0FEAeSJ8huNRvAVh/znp3bsKwwBhsA1IkAaD/lwNQYWcPV6PTq+0WhcWBMpFZXLTqxWKy3rqNVqhUIxNDS0ffv2c+fOSaVSVIFbqWuEawm8zoVxpmnGThZSALit5VwOzCFsNpter1coFBaLZXx8PD4+3svLSywWj42NwaiIBSAwGHQP56zm4Q5REG7nRKgiq9U6OTlptVopMADXiusAAr1us9kQzgiZmM1mLEhzmc081It9giHAEJgrBKizI0N0dovFYpy6JiYmDAYDlAOWdWg9d64KcPX5UFEd2AlKqNfrtVptX19fenr6wYMH+/v7KZA3aTA2iXKYfHIhvZo0YydXL65z/yS3hRxyh68GxmOz2axWqw0Gg9lsFggEJ06ciI+Px+KOWq1WqVTo21jyWKhlWi47wUoT6AXCOcNXRqlUTk5OwsaDfx3El+t3glUtGIfgAgzTC9uz4yAq7E+GwGJBgDQeCkzsxGAwqNXqiYkJWCZwHz7+CzXGU1G57ASLUGazWafTKRSKkpKSw4cPl5eXq1QqmnExdsKVRi6MM00zdsJFcr7T3NZy+DYGdcwq8Bicw2UyWVlZ2bZt2xobG3U6nUajQVxC0JcFdIwFO4EqmZycxP5hOM3AIcZsNqtUKvwE7jW93wnYGLzibTYbpizEaRzgYn8yBBgCro8AaTwUlQZys9mMlREEN8OcZKEmWigbFZXLTqDf4HTS0tISFhYWHByMqRdxKarUQvEqlxIDLowzTTN2spBNyW0th3LQKgbZNskPY3x8nMfj7dmzB5F/YAI1Go1SqXQB7QrUJ2EOQY/V6XRarbarq2t4eBjLNBMTE3TwxPTsZGJiwmq1jo6Otre3Y1kHCDCC4iAq7E+GwGJBgDQeCgylYTKZJBJJe3u7VquFfZQ4ygLWi4rKZSdQPhqNZmhoKDY2NiQkRCKRODvDcpXhAlbBFT7NhXGmacZOFrIFua3lXA44kVitVo1Gg8Eem1YmJib0ev327dsjIyO7u7sREgD92TmTebuDDkkrNXa73WQyabXalJQUNze3pKQksViMhRt4tlLBHECgjm2324eHh+Pj4w8ePNjR0aHRaLCDGiGb6HWWYAgwBBYLAtTZUWB09o6OjjNnznh7e1dUVMjlckxCMJkBM1iQ2lFRHdgJ/EuOHDni6enZ1dWFx6CEubqL9OGCFN51PsqFcaZpxk5cpx0vWxJYOLmOHTabraWlxdvbOzo6+uLFi+gJ9JjFYsEmXmzNp8CLc25ppN6IGQ9ir4FU4Y5EIvHw8HjkkUf279+PXUVarRZB5BC5RK/Xo/PTlmNUEyUfGBgIDQ3dunWrQCBA/6coKbDBWCwWnU6Hvcr4OrYrXxbKhfgBnBLgY8ELpTCbzbRtEmSOCs89dZ1ApgTNL7FwhvYFf4XBib7l8AqeBJFFlDw8gAVENBzW1DUaDbLCZBE/IQYPmgauyhA5cl6GwzJ9heJrwbMb39VqtWg7fJqcpShOKFeM6SaxcwCIrPR6PbfR8TCepGNjYVnEVnaHbSCoAgYbigAG5OFjjpsoD5qM4h3TTVj1qGdZLBa1Ws0tA+QcFlBYDfEuYKRsqaUoq4UQ1ct+E8WjRse6MyQE/dpgMABzrgxQX8ZNEjkoKLxuMpmqq6s3b9788MMPFxYWajQaEn6KdzI/4HC/QiXHgAp5Q3QDrVYbExNz4sSJyspKrFnr9XrqIA6ZXBbQZfPDTBkJ93nGTlxaTLhNxfUYtdlsarVaKBSeOnUqKSlJIpFAy5MSIcVqMBh0Oh1U8LVXlcqDrKgrmkwmuVwOTU3B06xWq16vj42N/f3vf79z505y7MXmHfAMYicIdwuVTVsKlUple3v7uXPnhoeH9VMXxY6kUdNkMul0OnilYLl6QfQ7IeM826MlOcAFY5hAICidugoKCvhTV3l5eWtr6/j4OBoL8bDFYnFbW1tFRUVRUVFhYWFRUVFxcXFpaWl7e7vVakXYbDjliESi8+fPFxcXF/7zOnfuXH19/eDgIOggFK5er+/o6KipqeHz+QUFBYWFhQUFBXl5eTU1Nfg0/P6MRqNOp+vo6CgvL0d+ZWVlfD4fn5bJZNDXaGKRSCQUCktKSvh8fllZWUFBQVFRUXl5eUdHB/aaUZ7Dw8OlpaX4NJ7n8/l1dXVDQ0NwM4LcajSa3t7eiooKPp9fWFjI5/OLi4uLiooaGhqUSiWFvTGZTEqlUigU8vn8vLy8/Pz8wsLCsrKy0tLSzs5OFJJ2fo2NjTU0NJw7dw5oFxUVlZSUVFdXX7hwQaPRkKODTqfr7u4uKSkpKChAVkVFRXw+XyAQjIyMwLcATSOXy7u6uiorK5FhcXExMqyvr1coFBi3IOQymayioqKkpKS4uJjP55eUlJSXl/P5/JqamuHhYTQ3daUFkV5nzeAgz6RYiHqim9vtdvix4l+M3yBn4KwELJ6HqzsUBTiryWTq7u52d3e/4447qqqqyNsMWwGcnTmci3otd6iaXO2KOmIOgL05IF5ms1ksFsfFxZ05c+bcuXOjo6PQusTCF3Bh/VpA+FrfJYRnkWDs5GttmmvNnNui1H9wyhRO7q6srAwJCYmIiBgYGKA+jyUVnLyD7TwYS3DnWspE5UEmpFIxZcThnLCOGAwGzBHPnj27atWqPXv2wDqCWRe3VNBrmHtBecEkQPultVotntFqtbCU0EIvdBmGUu7091rqOLt3CRlndkIoYVJot9vFYnFwcPCpU6dSUlLip67Y2NjU1NSqqqrBwUHsu8Y0fWRkpLKyMi0tLW7q4vF4CQkJKSkptbW1YKhQiEajsbe3NysrKzY2Nj4+PiEhIS4ujsfj5efnX7hwASQGpgWtVtvU1FRYWJiYmBgbG8vj8WJiYsLDw/Pz80UiEbFYZF5XV5eWlhYbGxsXF5eamhoTE5OSklJdXT0yMgIeabfbdTrdwMBAaWlpUlJSYmJieno6ipqRkVFXVyeVSsn+gXEI+fB4vLS0tMTExPj4+Pz8/J6eHkysMSSo1eqWlpbU1NSEqQuPxcTEFBcXy2QyPINhTyqVlpWVJSYmRkdHx8TE8Hi81NTUpKQkoVAokUho4DeZTAMDAyUlJYmJiTExMfHx8XFxcUlJSWfPnhUKhSqVCpwAhK+trS0tLS06Ojp16gKSRUVFvb29kEzYfsbHx4VCYVZWFgrJm7qysrJKS0ulUimqg/AYYrE4IyMjKSkpOTk5aepKTk4ODg4OCQlpaGigQpKczE4C5/YtB3mmsk1OToIdWiwWxDKYnJzU6XQwBCJaCRghOBxJFOyC6KTQVHjFZDKJxeKIiIif/OQnpaWlCIaEuQrNOujrc07dqJqkXclKBzEzGo00LxKJRDk5OUeOHCkpKRkbG9Pr9agUJJzsSXPbEIs9N0J4FgnGTly69bktSv3HbDYrFArMmLVa7blz5w4fPpyYmDg6OqpWq0FNFAoF+D7mAeD4tAIy6zpTeZADtAbXOC+VSuVy+cDAQGNj44ULFzo6Oo4fP/7oo4/u3btXqVRKpVKBQJCfn9/V1dXY2Jifn19bW6tWq8VicX19ffPUVVpa2tvbCy0mEonq6+srKiqGhoY0Go1YLG5sbCwtLa2tre3u7j537lxycnJ1dfXo6Cgqi1iTCxIQhZBxZifAiuwHVqt1fHzc09MzNDRUKBQ2NTU1NjbW1tbW19d3d3dj3R2acWJiQqlUdnV1CYXChoaGxsbGhqmrqalpcHDQZrNptVosGeAcsoaGhpqamsbGxubm5oaGhtra2paWlvHxcQzktGYxPj5+4cKFhoaG+vr6xsbG+vr6qqqqlpYWGNUhMJgE9/X1NTY2CgSChoaGlpaW2tpagUDQ1dUlk8mQJ5Yt5HJ5d3d3Y2OjUChsb29Hzk1NTf39/SBG+DQC9ggEgrq6OjzZ0tLS0NDQ2toqk8lg2qHVpdHRURQPUtHQ0HD+/PmOjg6cM4WlKKzrET5AqampSSAQDA4OAhyMlNgScuHChfr6eoFAgFqjUoODg4j6BTOAyWQaHx9HizROXfX19UKhsKurSy6XY08c8byhoSFA3dTUVF9fX1tbKxQKW1tbdTod7S+1Wq0qlaqpqQlt3dTUhEZMTEz08fGprq6mJ2kMnnX3nMMXHeSZerparW5qauLz+c3NzV1dXVlZWRkZGbm5uQMDA2q1emxsrLW1NS8vr7u7W6/XS6XSpqamc+fOnT9/Hk5jYrH4woULbW1tFy5cKC8vHx4e1ul0Y2NjERERt99+e3JycmVlZUlJSW5ubkVFhVQq5SKJMsxhHclJDn2W8Ad5ouU5aNqenp6cnJzAwMCcnJzR0VGiLCQ21CPmtoSLPTeuIM00zdiJS7c+tzmJnWDoIsJhsVi6u7u/+uqr1NTU1tZWTBmxpoupDEJEz8m0g8oD1NCfDQYDBjbMLC9cuJCQkHDs2LGgoKDTp0+/9dZbd955565du8bGxurr6/fs2fOrX/3q8OHDu3fvXrVq1caNGw0GQ0ZGxr59+/z8/Ly8vNavX+/r6yuVStVqdVVV1Y4dO1avXp2YmNjT09PW1ubh4fHiiy++9957wcHBf/3rXx944IHXX389JSUFnrawqSxIixIyzuwEww8W0WEQEovFx48f5/P5tP8I3IUsw7SMDZZAfAtND6MUubCQ0QjzTrxLn8OfeAb5gwdw15swD6Y5MeaLCD4BnWu321FBeE7QF6lq9BV4eNB6CnQ3/BVg6jcYDFzhoXk2GAz56IABoKgQM3yU2AZW9DCEUL2wEECLDvgVvQBfx5O0LAhPFPImgcEDaKBG+JfMP5QgDgerHrmhWCwWWGIIcDIhAElqUIFA4OXlVVpaSoZAGh0XRIAdPuogzygbrF979ux54IEHNm3aFBkZ+eqrr953330PP/xwQEBAT09PZ2fngQMH/t//+39+fn4DAwNtbW3u7u6PP/74iy++2N/fr9Fo4CMfFBTE4/HeeeedtLQ0qVQqEomCgoL+4z/+4+TJkwcOHFi3bt0jjzzy8ssvFxUVkdL7msChajp8CB3NYrHIZDKtVisSiWJjYw8dOlReXo4Orp660KZqtZqMKA4wsj8J4VkkGDtxafnhtii3/9hsNoVCIRaLsYCi0+na29t37Njh5eXV2NgIFU8B4zHRnJOw0FQeoEYqA6OIQqGwWq1BQUG7d+8uLCzEXrvw8PAVK1Zs375dLBYPDg76+Pj85Cc/WbduXWpqKp/Pj4uLm5ycvOOOO7Zu3drZ2YkV6F/84hfNzc1ms3lkZMTNze3+++9PTk7WTl0eHh7333//s88+W11dLZPJAgICnnjiiV27dsGNEfFz54SHzVQsCBlndgK3D1rW0ev1AwMDgYGB5eXlcMHBu/RFDMA0J7PZbMiTxlRKoKZgPLg5OTmJ5oa6RM70POlc8hLl+vFAbGj4554vTbXDFymeDW2vwCfISxePQSow/cUaHEgY2AAs4RAhCieI4R+TVxQSVIMQAHOCDcNkMnGD+2HgB4xgFXiLyky0nlgsyBa8Z7BWhZUL+Nuix4HnwTiHItGWeNQaLYtmguMwfJwpfDN5YGChB06UHR0dXl5eJSUli8h2AiS9vLzuv//+559/Pi4ubnR0tKam5uGHH37ooYfCwsKUSmVmZuaPfvSjo0eP9vX1mUym3NzcNVPX2NiYSqXavHnzl19+iV2HYWFhZ8+eHR0dFYvFISEh3/ve93bv3t3f3y+RSDw9PX//+9+fOHGCyDGpGuomc5IgweZqVxwNplQqQcpFIpGbm9vBgwcFAoHFYoHIQZ7REaBa0RfmpFRLKRNCeBYJxk5cWhK4LUr9B4fskG8p5osGg6G/vz8iIsLd3T0rKwteomq1GgoR2pym4LOuM5UHOUBlYFRAeWpqal599dWNGzcODg5inpqcnIyVHYvFIpVKw8LCfvrTn546dWpkZEQikYyPj09MTJw+fbqsrEwul/f39/v5+f3gBz8QCAQKhUKpVAYGBt57770xMTEYR4OCgp588sm///3vMBRHRUX953/+55YtWzCGIV7CrGt3LS8SMs7sBESBDnQ0GAx9fX1nzpwpKyuj6HkYAqGLKY1xi0ZE+hMPYFDErxiMyTCAfFAdzPIxrsAqgMdgXcPACbckshZQzrAlIB8QC4zrNOpzM0epkC3xACz9kIRASMjQRcVGgvAHQ8K3wADIvAGTIREpkAkgjI9yAXFoC/QF7vomNQpqSijhGZAMkD8UxtlJk4oHLwpUEKUlnFEwbuY2m+3ixYu+vr4VFRU07lKCcFjAhIM8o2zwY01OTn7kkUc+//zz4eFhg8Egk8m+/PLLBx54wM3NTaPR1NXV3XrrrYcOHWpvb8fRYM8888yf/vQnkUikVqs//vjjxx57LCQkRKfTSaXSwcFBlUollUojIyNvu+22lJQUeD3HxMQ8+eSTmzZtwkInIQMM5xAWqiZpV7QdvPrEYnFra6ubm1tYWFhbWxvca+RyOZkM0dEgrpCNOSzb0siKEJ5FgrETl5YBbotS/8E4MT4+jgEb+hp0ZHBwMD8/PyAgICgo6OLFizqdDq5biCp77X2bygPUSGdhG6rNZktKSnruued27doFL1ebzVZQUPD0009/9dVXOp1OJpOFhYXdddddsbGx2CiBgRD7TdLT06Ojo/fv33/LLbdgodpqtYaFhd1zzz0REREwoYeHh69Zs+bTTz/F+FFQUPDEE09s2rSJPNQWqjkJGYcRkVqNlkvMZvPg4GBERER1dTV3RYCoAPQjNRZ0H/2K0ReDJXf8xriIO3gX+WDSjzuQHLKXoGx4EZoXDQrrC8ZmKGLcIfqCZQvyakQtUE4cqITnyZSCnzCQw/AAGwle5JYWE1CySRB63Ocx2NMaEwSDMiFmQDwG9AIVQc4kJPgJjIoLEWbDYDMEKWqBx9DK+ARxSoxPqDXtaaIFKaossm1tbfX09CwuLib/YhqDqXgLmHCQZ+rpFovl7NmzK1as2L9/P1U8OTn54Ycf3rx589DQUFVV1S233OLj49PT02O1WouLi//85z+/8MILXV1der2ex+OtWbPm0Ucf/eijj2D+xDG/Z86c+dGPfpSfn4+Q8MnJyc8+++yGDRsgq4QMwJ9DWKiazpLW398fEhKyd+9ePp/f1dWlVqtpkQ5GQbjuAgTYyeawYEsmK0J4FgnGTlxaDLgtSv0H2lkul8N+gCEHGz1sNtv4+Pi5c+eCgoJCQkKKiopAYvR6PfwTr7G2VB7kQ1oD/ol2uz0iImLlypU7duygqSTYya5duzBJio+Pv+uuu6Kjo8FOMHc/e/ZseHh4UlJSTk6Oj4/PLbfcUlFRAb515syZe++9Nzo6Gt4zkZGRL7/88ubNmzGulJSUrFq16uOPP0Y4fyrPNVZzFq8TMs7sBLlhNAW3GBgYCAkJqaqqolk1WBoNkGTlgh6EiQIPc9MO7IR8NuktcragKT4NsRAbGCHItkG0gDZ84RMYhjH6oqi0WkG0CRlipCdmQEyLio0XKQoIMSQ8QI+RNYXalKoPBsM1IJENhsZLVIQKCeMKETs8hq03tImduBcZVFB4wgRlo/IAZPzKLS16Ij5NZebuBMHCQWtrq4+PT0lJCbEfynkW4jfnrzjIM7dsmZmZDz300IEDB2gZrqys7LHHHtu6datIJKqoqPj2t7/t7+8/MDAAdrJ27drVq1f39fXp9fqLFy9GR0e///77v/71r998882zZ8+KxeKRkZHg4OAf//jHpaWlKpXKbDanp6e/+OKLGzZsQEvR1+eHnUil0rq6upiYmICAgOTkZGzPwXQLB5qCEBNHJ0I858Wb82ad/wy5gjTTNGMn899es/8ieikNaRR0Fd0DyheL6O3t7WFhYcePH8/MzBQIBGKxGAMGXB1hc8Yd5EnUhz7BVbg0xXcoOiloGt6SkpIef/zx9957TyQSIf/8/Pw//vGPX375pVKplMlkmZmZd911V2RkpFqtBqfp7e196aWX3NzcWlpaMGz/4Ac/qKysxH7F06dP33fffTweD2400dHR45xmfwAAIABJREFUL7300ubNmzEB5fP5q1at+uSTT7RaLcZmF7Svcoc3oDo2NpaVldXS0kKkhNsKGAXRIniXtB6eRya0zo130Rb0Fg2laDKSGWpBjO60tESPIXPkSS6fyJxr2KB8cBPPg1SRkYDKiddRJPzLHbZBmGjdioTKuUhEesgQwsUNowVex30UAL44SKPWRFYIJVoqArviwoIxmDtMOjQK9R0ksIcWn0MVUBhaIUIZBgcH09PTW1tb8SSeoeoQvAuV4A4kVEHIIdjJ3r17YR/S6/XZ2dnPPPPMkSNHdDpdXV3dd77zncOHD3d3dxsMhtzc3D//+c/PPPPM8PCwQqEYHBzs6+urra3dtm3bfffdt3Hjxvr6+rGxsZCQEOwohn99RkbGmjVr1q9fP73txFmqCS5qIxJd/ET3IaVQFwS+0Whsbm7Ozs4OCgoKDg4WCAR2ux26BQeRIhNYavEWd/3ucnqSSrUME1xBmmmasZNFLDDU2Fz1QdZ7lUpVXFy8b98+T0/PoqIikUgE8wnONIaVkrakop9DUXJHC7h9OQdKwadpMorppslkqqurW7t27XPPPZeeni6Xy5VKZXp6OhZfBgYGpFJpXFzcXXfdFRYWBhdauVyempr6k5/8xM3NrbOzs6mp6ciRIz/84Q+Li4uVU9fJkyd/+ctfRkREqFQqm80WHh6+evXqLVu2YMaZn5//1FNPbdy4kTbi0rTYddqVOx4DSb1eLxaLYcReqHJeUnigcGkgh3cqFDpsDNOXlvKEAYmUPg3AyAqGE7o5fZ7T/woTBUZNZE4BOSDGDkYgjFXT5znnv+KjxKjAjXQ6nUgkQi8goJCY8wLMIsPLNaXdbs/NzV2xYsW2bdvg9m40Gr28vN59910ej2cymYRC4W233fbhhx+eP39+eHg4Kipq5cqVTz31VGdn5+DgYGFhYWVlpVarHRsb27Rp08svv1xQUCASiU6dOnX77bdnZmYiSHFKSsof//jH1157jUsKncHBFIW4Oz2A2Rq9y92EBQoLmksrd1jcRMACX19fBGgYGhqi+R5mX1fTBWYB9dJ+hStIM00zdrKIZYMam8tOKIQRwrBKJJKQkJD333/fzc1tZGQEfqO6qQvqEv6k3FkydXLkT4YZLlL4Cb0XwwCIjsFg+OSTT26//fZnn302NTW1t7f33Xff/fGPf/zMM88kJSXRhsNjx46NjIwYjcaRkZH8/Pyf/vSnq1evdnNz8/Hxee+992666aZDhw6dP3++s7PT09Pz3nvv9fDwwE5ULy+vBx544P3338cIx+PxnnzyyfXr17e0tKBILshOEFaBix7xFQyo+Jdg5z759aUvKTywHGBEp4kgmOvVlITydGAnCMNDCwHYDQTBo6nn1eTPfQZDPncdDeWEpQS7LRAxnaw7hDM3n3lLU/sSOOBn3M5Lz8xbqS73oUs2JRCOj49//PHH//rXvxYVFRkMBq1W+8orrwQGBmLtpqKi4v7771+xYoW7u3tYWNjnn3/+m9/8Bsyjvr7e29s7NDQUMQg++eSTvXv31tXVdXR0eHh43HnnnfHx8QqFwm63R0dHP/zww+vWrQOTAyzTgAPRom5FVjR60WQyaTQamMTg8QqjCETCarX29fWdPHlyzZo1kZGRTU1NCoUCEzOs0yFNPeJyoLH7zghwBWmmacZOnPFcNHeosR0UHAUlQ8RPhNxOTk7+7LPPjh492tnZiQ2c6HhgGPDZpG2TuEmOh87dEp/GYzCcIGaRxWIZGhqKj4/ftGnThg0bdu/eHR4efvTo0bCwMIFAUFVVtXnz5nfffdfNzS0nJ6e3t1culxsMho8++uiFF17Ys2cPn8+vr6//5JNPtm/fnjd1HT169K233tq+fXtbW1tDQ4O/v/8HH3ywd+/e8vLy2traEydO/P3vf//8889xQgciW9BcykUaEjqdQjyRWRgTMoydpFjnrfCXFB5wPngcU7RfrERcDZiUJw3AGB4oK/JNgeRcS2XBiWlHMT4EGIlq01ZhCDAGraupyNfxDGAEe8Z+VFozokEUia/j6zPN85JNiT075eXljz/++GuvvXbq1Kkvv/wS3XZsbAySLJVK+Xz+K6+88uabbwYFBaWkpBw9etTb27u5uXl4eDgyMnL37t2nT5+OjY319/evqalRKpX19fX79u179dVXDx48KBQKa2pq/P39161bt3HjxpqaGq1Wy8XHuSJcWy9+JRjhnU3R9ogOms1mpVIJBSgUCn18fLZs2RIeHt7T06NUKrGcBIWGbY+QW4p761wGdudyCHAFaaZpxk4uh+oiuE+NzWUnGGAoApVSqVSpVBqNZnR0tLKyMiUlxdPTMygoCKEYMXOFWsEgSsv/yBNzC2cs8GmMMbCL4kQVrVarVquHh4eFQqFAIGhqahoaGuru7u7v75fL5WKxuLS0tL6+vrW1ta+vj47mqaurq6ioaGpqGh0d1Wg0iDo6Ojra1dVVW1tbV1fX1NSE7ccXL15sampqb28fGRmRSqVdXV0Iojo0NIQpkTORci78/N/hKlBQQJzDAj8SoiakPeehhJcUHsgAVs0oTCfM4FdTJMrTgZ2QIy2dpkTOs7NuLwztk5OTsMFgQAL/IAdGPIOhBf86r1FeTb3m5BmuzxBkAEc00AoXjcFz8rlrzOSSTQkxzs/Pf/jhhz/77LOuri7EJpbJZIheA1EZGxurqamprq5ua2vrnbr6+vpUKpXBYOjp6amvr29paeno6MDkxGg0coPzymQyiUTS1dWFSMEUwehy4HAXcVBlGNVoNQ2eJaAaZDvBHsba2lo/Pz9/f//U1FSEn3aQH7LB0G6da0R1Gb7OFaSZphk7WcQCQ43NZScwnBD9xyIOxhu9Xi8SifLy8hISEiIiIsLDw7OyssbGxjCtBy+BFqC5AnZk4ENcpOgO6Av8WxGjHZtxiCtgY6per0dWGPMwp9Hr9diYA/c6Cs8F3Y2ze+BuAh0E10XoHVSTXkf+0D7XMiPn1nEO06QiMUQZDIaLFy+Oj4+TJiXlO2+Fv6TwgCc5zOlBWa4GDcrTgZ1ABmh/ECgCLbhcTc7OzwAxsBMYJGCcIJLNpXrcgHjOWc3PHaovhnCtVtva2jo2NsZteqTnpzzTf2WapszKynr00UcPHTpENlpyy6ADrrH1RqvVajQatD6aA+M9NvTBqR+KAtuw4SBCkyWEtuPqJefeAVnFM2h62suNzgUFRdGKjUZjX19fXl7eyZMno6KiwsPDi4uLcb4j3PChlGhFibgjusb0oLFfnRHgCtJM04ydOOO5aO5QYzuwE9iNsegOTgC2AcqCE9EKCwuDg4MDAwPj4+OLi4svXrwIPYKsoOgR5xvKwgEUfBq2E1K7FotFLpfTV3AkCuJC4pxkKA7MwLBshGEDezvJiw2KgFQeKsINvwE1pFaryUSEotL01KG0C/snwEeloJHlcnleXl5bW5uztp23ol5SeGgLA1FJeAJepYWD8nRgJ3A0Qfti2YUcY2ddX2InKDNJLLxiQXAhJ9jBS4/NP+YYJmlbEFZCR0dHU1NTm5qaHEbf+S/eJZvgkk1ptVrVanVoaOiDDz64ZcuW3t5e7OSniDLoqkajUaFQcCkI7FtoDjgy0/EXeIwYCQIHoCMjW+IHztSNS+xIq3DZCaQCeSoUitbW1uLi4qSkpJCQkGPHjuXk5AwMDJAOMZvNsGhyFRGVHCi5SOtcsslc8yZXkGaaZuzENdv0qkpFjc1lJ+jMsGRKJBIs+WNSQjZwjUaj1+s1Go1AINi1a9f27dtjY2Pr6+uxrQb0gno+rJoOBcKnwU7AMxDRATMVbmwPnPuK0UKn0+FMCiITxCdQNhpCkA8mRlqtFrsDKOQa1AeUFxl+UEL85FDahf2T/Esws4RrTlhYWEVFxax9Qq+9RpcTHgwh2FWBBTUMrlfzRcrTgZ3A9GUwGHAAITaqYLS+mmwv+Qxkg37CuAhePjg4iPMUaVMGGdVQO3prfhLoGigDlkFhPPP39y8pKQH/o+7mIuPfJZvSZDL19PR4eno+9dRTGzZsKCwsVCgUBoMBgZeIPYB/gI6jk+Isa2ghhIiknYNEJhAPEAoB5iW1Ws2FhfKnVsMdCBte4RIL2GkUCkVXV1dzc3NVVdXJkye/+uorX1/fyspKnIhESzl00AcVHnQHBhXqp1dJ06mELMEVpJmmGTtZxPJDjc1lJ1h0h46jMZ4GGPQumqkgQIVMJouJidm4ceOmTZsQsxlnX1E8FWeM8GmwE3zFarVyNwThJ61WK5PJMGbQsSO0oxJH/SEECzmpQWvYbDaYWyjOG/bfQgfhBDgoeszFUREKYuZc4AW8A75IRqnJycmBgYHg4ODy8nIoU24zzdvgdEnhweBtNBpFIlFMTMzOnTurqqrIoHLFslGeDuwEI1BPT09MTMzu3bsrKytVKhUW42at7sFOaMTCLFmn0/X29p46dcrf37+urg72fJxrA/ypLeZTHkDOCD10xgsXLvj5+S2uSPZms7mvr6+tra21tbWpqam1tXVoaEipVML8ACKCAyvIwQjtArmCHoC0A38yu+IQabvdDj3AXVmexnaCbCF1kFLKVqFQSKVSpVLZ1tbm7e390ksv7dy5E4s4KAZMxTQ7QlY4RhsxV6i9uDnPWlznU95c6ltcnTDTNGMnLtWUMysMNTaXnaAzUyQAmnyQ5RMjIjw/MG8zGAw4U7C9vT0pKWnXrl1bt24NDg4WCoVEOBxKhk9zV3YoTetBWNkhxQQfwImJCZok0ewK+hoWbyoeFheg2TUaDfQCcsO/drsdUzfUEScjuiBBoUkzvH8mJye7u7tDQkLKysrA2IADcRQHqL+mPy8pPLT8dOHChbfffvvnP/95VFQUIL2acZ3ydGAnUPRVVVUbNmz4xS9+ERkZqVAo5kTRQzwwfmCHWlFR0XPPPfenP/2Jx+NBJnU6HajMNVprZt0QsJ2gDJiFm83mlpaW48ePg6FSJyWyNetvzdWLl2xK6BAwS/iUAHmiHWT5gGAjghkqBXsqdguij9MuNjQTTl4EoUSXgeBNAw70BopKpMdqtUokkra2Ni8vrw0bNnz22WcJCQm9vb1jY2NKpRIUCpGfiH8gH+SAhTaQKjQWOgUeplfmCuclnw9XkGaaZuxkiYgHtw/TNJHLWi75AIYcGnj0ev3w8HBHR0dzc3NWVpavr+++ffv8/Pyys7MVCgVthUW2UEwYHmgrBPQXfoLVlEYOMplikEB5iGdAQ1FJ8CvaBnmSdqBRHEqfu2zvmuGSYIICUNiUKBKJAgICiouLARGU9TwrPtIUXCGhhhsfH9+3b98vf/nL2NhYFJLbNDTjxIiLFsHaCuisVqtFfBrUGkREoVD4+vr+7Gc/i4qKkkqlaGJkhYaGYQxDAnEXWvgnVxLiwRhCwPlwE4fSrVu37oUXXkhISKBRh6RrQXo7HF8g/xikTSbTxYsXjxw5UlxcTB2TGoIr4QtSYOePUiFxjhJ1aiBMTUAGLTQf1jS5YzykiPoyZYsEIgNRGjhwScwlC4Zvmc3mnp6ezMzMo0eP7tu379SpU3l5eZWVlc3NzRKJhCYAJDwOWVFJcB/1cignGsjhRfbn9AiQnplFgrGT6bFdar9yRcShbrRwi1EfB3qlp6fHx8fHxcVFRERER0dnZGTU19ePj487qCeiCDR5gmYhpUCdn9QTjXYOxaASQkFwM6Qn53kgp+/OLgGsoBaJnQQGBuIEODJuI3NSzbP71tW/RTjToIihBRYsjUbj6+v70EMP8Xg8NAGkgow9YFQOJn2suNH0l/goPJrVanVQUBDsMTjolex5kB+s8WOooxGa8MGCIO7Tv7RGyXWu/OCDD9auXZuUlITHuIacq8dnFk8SpPgi5UAUjeprMpm6uro8PDz4fD4N7XieGNW8SQKV82oSiEtGHZAMQigtd7KBUDTUfMRjyF2MVAEpB0gatSlygw4hTcK9aTQax8bGzp8/HxsbGxoaGhUVFR8fn5iYmJOTU1NTMzw8jP2DFGMQPImRjKtp6Ll6htspZppm7GSuWmFx5MOVD4cS0x4ZLM1Ad8AFoa6uLiwsDCcLxsbGpqenFxYWlpWVIZwJll246oOsJjRnxTjBfYbGbO7oSKMOJUg30WTaQfU71MIF/6TxBvzPZrONjIzExcVVVVUhHhRN0ajW81ALkgQH/I1Go3bq8vX1/fWvf33ixIm6urrExMTo6Gic2YYWkclkzc3N58+fr6mpyc/Pr6mpEYvFmOZaLJbO/9/edwdHdWXpz473tzt/zHq2tjaMZ+xdHMBrnO31usB2YZvZtYfZcSoWg409JgiwjYexwAkYQMYkI1AkKKGsVmploQCSWrEVUESxu5U6qHN6nbsl8avSV3vqbot1jRhaluT3/lDd93T7vnO/G873zj333IEBsVjc0tLS0NCQk5OjUqmsM1dMTMyDDz4oEAiMRqNara6trb18+XJ/fz+OtDQajTKZrK2traqqqqioSCKRcBxns9kkEklFRUVpaalKpaqqqkpPTy8qKhoZGZmamoKLgF6v7+zsFIvFvb29YrH4t7/97bp167KysiAqKghsAwosQerXRUlzk6kMtpPY2Nj6+npspiXBqLcsTHbCqnZUk/1+AMjENqg/I4H+j8Ud2ktIXymgHQQR5gcQO6K5Xq/XZrONjo62tbWJRKLy8vKCgoLU1FSELcnJyens7DQYDKDOFKGAiLUfESTM+UTgEGAHxVzTPDsJXLssxJLZ/uEnHyYCm82GuEnEJJDN6/VyHCeTycrKyqKiog4cOHDkyJHz58/n5uaKRKKurq7e3t6xsTHEfoUXJLsZAV+N9NlEn0c0cdPcRAZw+j5jtQtNfH7CL+RbbHqC5oYBQKfTNTQ0DA4O0k4BqiNL2gJaKeoJeDU1BPZVGo3GqKio+++//w9/+MPp06d/+9vfPv744y+88EJpaSlCb4nF4j179pw/f/7cuXMff/zxl19+WVZWZrfbb9y4IZFIzp079+2338bHx588efKhhx6KjY2Vy+WTk5NJSUkrVqwoLi7W6XSVlZV79uzZtWtXUVHR+Pi4Uqmsr6/Pz8+PiYnZt2/fyy+/fPjw4evXr09MTAgEgl//+tfPPPNMWVnZgQMHXnrppRdffDEsLMzpdKrVapPJVFpaGh4eHhsbm5eXd+7cuccff/zll18GOyHfBdJ2gUOVIJ3NTmhLP1Smx+MZGxu7evVqf3//omMnBCCqiaHNwksGFbKO0Jodjd/ZxMWvBOScnp62Wq0qlUoqlfb29nZ0dDQ2Nubk5ERFRX3zzTchISGRkZEikUij0SA2ASYNiITvGTopDHwIwrNzC1WHTwQCAXZQzDXNs5NAtMjCLZPtHzeVksYtyIpfVCJSopOTkxaLRSwWR0dHf/rpp0FBQZ999llERERZWVlfX59Op8NxP+QrgHNP6I34QKR30XM2Qd9h9FJ8V8ERgc25wNNk2EdFEJBDr9fbbDaWGdBHM1mJAlov6gmsDLTtwmQypaamrly58uOPPxaLxaOjo+np6ffddx8IitlsTk5Ofuihh9rb261Wa0lJCU4tgKns66+/jomJGRgYmJqaGhoago9qXV2d0+m8ePHismXLhEKhXC6/ePFienp6X18fAvQNDQ1t3bo1Li5Or9f39fV99NFHd955Z3Jysslkqqmpef311//5n/9ZKBRqtdqqqqqNGze+8sorarV6enq6tbV1x44dZ8+eNZvNCF2/fv36devWZWdn47MeFWSVX4CAJUhnsxNqXOrzVqt1YmLCarWS8QBSsTkpc4AEvoViUTVWMCIcZKmiHoXyEd2AejUc9rGvGB8wHo8HRjIEJsF+H47jLDPX8PBwaWlpSEjI5s2b//u///v3v/99XFxcW1sbbCQUpZ7stfjOYWcPdEuSGQjfQt35n9wCAuygmGuaZye3APgi/gnbP/yqgaN2MMgdMxcMoS6XCxMBa3TFvI95BKFTNBpNR0dHfHz83r17f/e73+3YsePw4cOxsbGdnZ0TExNOp5NO1bJarTabDeYTRGZkg53QJAILMC0VQ1qaCv2EX8i39BWITzqa3/GJSUG6qGqEQEArRT2BdAnJ6fF4FArF+fPnH3nkkYSEBIQbVqlUH3zwwT/90z+lpKQgUk5ycjJ8PFNTU5977rk333wT8U9Xr14tEAgsFgtiiQ4MDExMTDgcDpvNFhsb+9BDD4WFhQUHB1dVVen1epAGi8USFhb2m9/8Jigo6PTp0yEhIevWrfvJT36yZ8+elpaWmpqaLVu2rFixQqFQ+Hy+wcHB4ODgV199taury2KxHD16dNu2bdnZ2Q6HA4E3Nm7c+F//9V/wO6H+Q7ULHKoE6Wx2QhSEVCNWH/yUKNqCHs5PT5gTINR7SUi/n8PHiJu56GAa1Bprx7Tggh+iHCpErVbX1dXFxMR89tlnW7Zs2bRp0xdffBETE1NbWyuXy202G80YBCDxTqzg2Gw22qXF/oteAfpCt3wioAiwg2KuaZ6dBLRpFlzhbP/wEw6DFuOZ1lmgO0FTZqtP0q/wSTSbzWNjY319fZ2dnc3NzTU1NcXFxRcvXjx+/PhXX3315Zdfnjp1Kjs7u62tTalUUjgmMv9invLzjMNLYRnGghFojZ/wC/kWAsOCgr2XVCmyVdCX5bxVhHoCy07g0IrNoufOnXvyySfj4+OxA1yj0cTGxt57770nT55UKBQGg6G/v18oFCYmJh46dOj5559/++23zWZzTU3NypUrMzIy4DDrcDhMJpPFYrHb7S6XKyEh4c4773zuuedWrVpVVFRkNBpBeS0WywcffLBv3778/HyE0+ju7q6trZVIJEajsbKycuPGjc8//zxOXQA7WbNmjUgkstlsO3fufOeddwoLC0H+3G73li1b3njjjZycHChFUqiBVvYE6Wx2QsF+aBsLxhQGGisYZKZBMW/94U98EeoIIeHLTE9ofqC1Hjyh+PQUeA3zhsFg6Ovrq6qqSkpKOnr06Oeffx4cHHzkyJGYmJji4mKxWNw1c/X19cnlcoTGZykRmWqAIRDDNi4KvgcB8CuCFPn/xPry2f5MBNhBMdc0z07+TPAX2c/Z/uEnOk0umDswhsEVbDYbPoOwn5CCkSMCPRZ0kRNsBnHS9Hq9TCYTi8VXrlwpLCzMycnJysrKzs7OyspKTU1NSEiIjY2Ni4tLSUnJy8urqqrq6OgYGRkxGAyYymnKpikG8xH4k5/wC/mWPuBo1kZkd/JEwSyPKqCy81Ad6gksO6HJ3W63nzlz5pFHHrl06RLHcVar1Ww25+fnL1++PCoqSqfT4WTXkpKSurq6hISEdevWbdiwYWJioqqqavny5SkpKWAnICWwjTmdzri4uF/+8pe/+93vnnrqqS+++KKpqQnLOhzHvfHGG7t27aqqqsLOHVjO4AJVX1//3nvvrV69GiGDJyYmDh48+MILL9TX17vd7l//+tdvvPFGcXExBUcPCgpaaHt22BVS9AdyxYDWpBZf4OyEeikRBXLsYK2AyAZnNa1WOz4+3tHRUVNTU1BQkJycjIGflJSUmpqanp6enZ1dUFCQO3OVl5e3trYODw8jNgl8tiYnJ/EWcFlQeUxToP6YGWiioEO+WFsUcRQ/wAl5PhEIBGieuYUEz04C0SILt0y2i/hJ6cdOSKciCCz52JN5FqOdDAPsFwxNHLDiYu7ACpFEImloaCgsLExPTwdBiY+PT0pKSktLy8zMzM3Nzc/PLywsLCgoKCkpqaiowNnFYC2s45uf8Av5lgUW06Xb7dZqtYh+S3Mlza3zY0ehnsCyE2pNjuNOnTq1cuXKlJQUaH2r1ZqWlvbcc88JBIKRkZEzZ848++yzo6Ojbre7oqLi9ddfX79+vU6nE4vFDz300B//+MeBgQGs+/h8vt7eXsQAjY2NffDBBy9dunTw4MG1a9ceOnSot7fX5/Pp9foPP/xwzZo1586dQ6A2juOMRmNra+vExERLS8sHH3zw2GOPYYVRp9PBWtPQ0DA5Ofmb3/zmueeeS05OdjgcFotlampqy5Ytr7322k337BDlDUSHIUhn207QyhgyANzhcKAP+G0kWcjsBF2UVD7AhB+VzWbTaDQSiQQs5PLly4WFhXl5ebm5uUKhMC8vLyMjIz09PSUlJSEhISYmJjY2NiMjo7y8vKWlZXR0FFwW5ZOhFKwd0NHowGQCJJGT0uyURV84+CH9PKAdIBCdarGXyQ6KuaZ5drLYW/+2yY9pkUYvzZL0AvrawxP6XsFsRbegJjAMINIAtuFgnZhKQwLHkKpUqp6enitXrmRkZERGRn799ddfffXVoUOHjh07dvbs2YSEBKFQWFVVJRaLOzo6rl+/3tfXNzAwIJPJVCoVwsX6uRdQLegt7BN2wqIMNAmShIQAfotf0X/9ElQmqkwMA88BDk2sRqOxpaVleHiYjWxLr6Pf+r3i9t7STMGyE1pWs9vtoaGhjz76aFJSEppPLpcfOXIkODhYJBLV19d/8MEHy5YtGxoaUiqVycnJa9asef3116GfXnrppbVr14aHh/f09Egkkvb29qysrJGREYfDERMTc9999wkEAqlU+vbbb7/yyivh4eFKpVKtVickJDz88MMbNmwoKSmRSqVdXV3V1dXYOVxfX79x48YHH3xQr9fjqJfPPvts9erV5eXl09PThw4deuyxx4KDg6VSqU6n02g0b7zxxosvvhgTEwP+B2AJ/NsL459SGgTA0h5aHBHTGxoaJBIJOWegKOoGbI+96Vv+xA5JPRMJ6ud+z+kVJC0JQCJhQ6/RaJyYmBgZGRkcHERI+/b29mvXrolEIqFQmJCQcPLkyUOHDu3fv//gwYPHjh2LiopKTEy8fPnytWvXFAoFTv6CeQNLMHRMJngGJCR5/MgQXFxpjzENFrL1ktgojW7ZAvn0vCFA88wtJHh2Mm/NxL/oJgiwXdbv3x7+k+z/AAAgAElEQVSPx2g0Dg0NVVdXp6amnjhxYt++fR999NGHH364e/fuffv2ffPNNwkJCZWVld3d3ePj4xqNRqvVajQanU5nMpk4jrvp9xNNtTQJkqWHXWGhCE5Eqii/n5w0e8LwMDk5iZNOSRlgQQdTMMdxN27cUCqV0dHRIpHIT0PM50xKyLPsBNsrcObApUuXVq9eHR4ePjY2plKpqqurN23a1NLSYrfbr127tnPnzvvvvz8kJCQ+Pv7AgQPPPvvsmjVrqqqqbDbb8ePHH3/88SeffPL999/fs2fPm2++2dnZqdVqFQpFZGTkY489FhERodfrq6qq3nzzzdWrVycmJnIcNzAwsGHDhvvvv3/t2rV79+7dvXv3pk2benp6HA5HWVnZ66+//q//+q9KpdLtdre0tHzyyScvv/xyamrq1NTUtWvXNmzY8Oyzz37xxRfl5eWFhYWrV69++OGH9+3b19PTw0bcIcvQ7Bacnyek+BGN7fjx44gVS2+nzklPviOBfosM1JHologmag1yRt8Jfo1OPweFcrlcOLDTZDLpdDq1Wq1UKuVy+cjISEtLS1lZWVJSUmho6FdffbVz587Nmzfv2LHj888/P3v2bFZWVnV1tUQiMZvNCzNw83fgyf8rEAjQPHMLCZ6dBKJF+DL/VATYLuv3G8zUmGTdbrfNZjMajTqdTq/XGwwGmFtKS0tx7ujOnTvff//9995774MPPvjiiy/Cw8MFAkF9ff34+Did0YOZl+M4mjfplDjwGAjwf31ysdQBhIO0HTangNBgWwF5E09PT9tsNpwDgBrduHFDpVJFRUVRnFBWN/iBELhbQp5VVLTrAW7OFy5c2DdzHTp0KCkpqbu722az4XijkpKS7du37969OyEhobOzMy4ubvv27WlpadgxUVBQsHv37vXr1x88eLC5uVmj0TidzvLy8t27d7/55pthYWGtra19fX0xMTHbt2/fs2dPSUmJyWRqa2uLjIzcsmXLxo0bv/76a4lEotPpxsbGhELh7t27t27dmpmZqVAoUlNTg4KCtmzZEhkZCceUxsbG0NDQnTt37tixIy8v7/jx42FhYdXV1SaTaWpqiiWp30ExAwc1lYxuA90vkUhOnTolEomAP/Kgt2OFgp74kWY8R59BGiFqsIefHNjxL7+/s9mP3yhDLD6lUtnc3Jyenv7NN9/s3r1727ZtW7du3bFjxyeffHLkyJHw8HChUNjW1qZQKMwzl8ViQQQ/nNwJkGHMoDHCDh8/qfjbJYwAzTO3kODZyRLuGIugamyX9RPX5XIh/gGMt6yFA2EtrFarXq9XKBQymay/v7+3t7dn5mpqaqqoqMjJyYmNjT158uThw4f/+Mc/hoSEnDhxIjIyEp93/f39WCag+ZqlCJQmFkI7LEgrIAHFAP2Hz1M46MA7h/ZgQ2fjrHmcBZOQkNDQ0EAvooQfCIG7JeT92AkOhVEqlVNTUxMTE1KpdGhoaHBwEEsz4GEOh8NgMPT29g4ODg4PD09MTIyOjvb394+NjUEbqdVqbN2SSCQ4p9rtdqvV6uvXr3d3d8vlcrVazXGcUqnEDh0sctntdrlcjjxSqRQbmiwWi1KpxNlP2Jouk8k6OzsHBwfHx8cRoJbjuLGxsa6urvb2dpwANzw8bDKZYCqAuxKqiTYKHKo3LRmcj9XZOBTm2LFjlZWV8M2iFQrqkMSSqW+w/6I06kVrIuAEWDEhYdDWuMUP3W43gLp69WpaWlpkZOSxY8ewHHPkyJFvv/02JiYmOzu7qqqqtbW1u7u7p6enu7u7q6tLJpONjY1pNBo4EqG5WeH95OFJCbXCDzNB88wtJHh28sPsMwul1myX9ZOJviORgIslbBI0NZNlhSKm+Hw+q9Wq0WjGxsYQ11wkEl25cqVi5oLlPzMz89KlS9HR0WfPng0LC7tw4UJycjJYS1dX18jIiNFohDcAvYgYEp7gvVAJ5CbsdDq7u7trampkMhlO/sOqEGSDpoSHqU6ni42NraqqoreQBvIDIXC3hDzLTpxOJ5iW1WpFvCxUAS5HRLywNRSBsHDYNbSUw+EAJrSOAEKGUDrAAQdG4iMbRgKPx2M2m7E7A8cHYhWMIqbAZRIeG0SPUBoisIEj0imVAB8yY38ZKxW5KAUOW7+Sqc+QOWFycnJsbCw0NLSmpgZYgbugXwFz6hJIoEz2IR2CiBLYAQJzi9frtVgscrkcTjw5OTnx8fERERFnzpyJiIi4cOFCYmKiQCDIz8+/fPly5cxVUVFRU1PT3Nzc09MDV3SACcnZXTl4ghZEe9E5Bng78RJUn279wOFvlzYCNM/cQoJnJ0u7byz02rFd1k9WaBRMx0RQ/CZu2DbYeZkmSnLgh9EF5nSTyTQ8PNzW1lZWViYQCOLj42NjYy9dupScnJySkiIQCHJzc/Py8vLz8/G3pKQE3rhdXV3kgQtNTC+FgQTxLgUCQVBQUHBwcHx8fF1dnVqtJhWC0/UQKHN8fDw6Ovrq1asLjZ0AJax8UUQ+xNyjikDrQxWhUsgPnxXiBMDf7XZzHIflFVp6oDbCiU4+nw8n2pOnJLsGB5Fg/wDUwBAx/WBfgZkNljY0N6QFNSGrm9+Hvl9/C/Qt+XxAx4+MjERFRdXW1tK+NtL37FIORsHsv1D5qJHL5TIajaOjo52dnXV1deXl5SUlJYWFhfn5+UKhMCcnRyAQpKWlJSUlxcfHx8xciYmJ2dnZV65cuXbtGstCaNSwwoA5YSSSmQQNDapHDUoIsyyKZyeB7loLuXx2hp9rmmcnC7lll75sbH/1qy1m89mfXJjsMGPONiNDsbGfcezMjsmX5lD83O12GwyG8fHx9vb2ysrK7Ozsixcvnjp16ujRo/BgiImJSUpKKiwsrKioqK2tbWxsbGpqam5ubm9v7+/vHx4e1mq1WOw4efLkPffcc8cdd/zLv/zL+vXro6OjL1++3Nvbq9PpzGazzWbDpD88PHzp0qWmpib6yqTZ3A+EwN0S8qztBGsQOJsQKIEK2Gw2OjsJjARnFNjtdlg78PmOBQXYh5xOJ33To8mQGTYSsEwEkEVDU+wc4j2gpIidw3EciAhegUAaVqsV61AoDWYVdAAYtECbbty4gVeQlg0cqjctGdVnzXvYeZSYmNjU1ASTD3om21fRVSAzGZa0Wi0W0To7O1taWhobG8VicWNjY1VVVWFhYVpa2sWLF8PCwk6ePPnNN9+cPHkyKioqNTW1rKzs2rVrY2NjcFYlIWko0WjyG1B+UuEWeYidYPs0awHyo4OzhzAJwCeWPAI0z9xCgmcnS757LOgKsl3WT1B2xmRnbYrIRGYViiGLJyiHZl6aHIkBUDbkgSZDEDAsbSB21vT0NI5o7+3trauru3DhwrFjx4KDg4OCgrZu3bpnzx5sGsrJybl69SpW5Xft2vWP//iPf/mXf3nHzHXnnXeuWLFi9+7dBQUFQ0NDRqMRPrNarbahoWFgYIDOKCbZ/EAI3C0hz7ITMBK49yKAPQz7UPmwcCCUHLZEAVvACEda6CqkYRohZYbPbvIZAshut9tut6OaFovFaDSiZKfTicj0yAamMj09jRDDgIs15xDFofAh1MrT09OgL4ED87tLBufDuhjQcLlcSqUSi4DEP1AdnAthMpm0Wu3ExIR65pqYmMBKZU1NTUZGxtmzZ/fv3//xxx+///7727Zt27Nnz9GjR+Pj4ysrK/v7+7Ha9R0iob1oXFBOsAr2OeGMBmX9wPAr9CLYTtDcIJc0JFk7EL2IT/xwEKB55hYSPDv54fSThVhTtsv6yYeZERMfDtcgxYO9NrQ9gdVDSNNflAnlCu8HiiWPf+ELlWZkKBJaEcB+VI/HA1aBk8mwpmCxWEZHR0UiUXp6+rFjxz755JPt27f/8pe//MnM9Vd/9Vc/+tGP7rjjjr/5m7+58847ly1b9qtf/ero0aMtLS3QRgjuvtBsJ5ANR6VAm2J9B44dFJ2CsoHHEKRerxeGClhWoO2wesVxHDZa4wwU2FFsNpt15qL2YhsCbyH/YmJR5Mvi9Xrh6eJwOGCaQvgcFEJlsl/8VL5fZ5ufW3KyhiLXarUwSmELN0BWqVTt7e35+flhYWH79+/fvHnzhg0b3nnnnW3btu3du/f06dMCgaCurm5oaEij0eDMAXRIdFqsjiG4s589g+qI4UBrNHiOnu9wONDuAI0wRIJtd/wK45dKmA0vVXn2v0gePrGEEWBn+LmmeXayhDvGIqga21/9xKXpDASFqAkZRZCfFsjZ2RZ5MDtTOfTJyM65flYZ1q+FVhaQn52vYdZGcFKj0ahWq6VS6ZUrV1544YWf/vSnP/7xj//fzPWjH/3oxz/+8R133PGTn/zkZz/72V133bVy5cpXX301NDS0v78f6w6sMCSqHxSBuCXkSeuTJFBCYE6kXeghmZfgC0Kw4DgVFisqGSYZBKenBQtyOgGYCNIFQgNvBrQ4FnRIDPLSgLEEv0X58AQChhCDegiaHp/1gQDzu8ukjkcdEj46XV1d2dnZp0+f3r9//2efffaHP/xh7969R44ciYyMzMjIuHLlilgsHhgYkEqlMplseHh4bGxsYmLCYDCA07DsjbzFKVgZMQm/TgVk0O2BHpacZuen/uBXAnJOT0/DToaiKA+1FGX7bnD4/y5tBGieuYUEz06Wdt9YCrWjyR2VYRUP9B/NjzRF+j2fjQI781KaykF+3NIkO5v9sPk9Hk9/f/9jjz0GdvIXf/EXf/3Xf/33f//3d99998qVK1etWvXqq6++9dZbb7/99q5duy5duiSRSGgfMr2C5CSR6MltT9BkQRwC6GF9gUBGHeH8ARJAygzWfjL/QNVBTlohohNSYOoHlXE4HDDP4BaMkE6iASnEpzxREDhegKngjXCIgbcK/RbWFKoIWA55oqBkbBq67Xh+R4EQwK9NnU5nZ2cnIr6Xl5dXVlZWVVXV1NQ0NjZ2dnbKZDI664B+SAl6F4YGYGR7ETUf5aQEFUK/Jc5EeZBgc7L/8iucstGvaFyw45EtgU//cBCgeeYWEjw7+eH0E76mtwEBGmMoC1MzzOlyuXzz5s1btmwJCgravXv3V199FRYWdv78+aSkpJycnLKyMpFIVFdXJxaLEXMd1oKbTuV+CuA2yD2rCLYipGCgv4kuwFCB/5LBnywQ2ImD5R5SdbSbF8oSthDyQoDPkMvlIhsJqUZ6NWuMgZOKy+WCxQUy0LZnGFe4mQtblKempux2OxldgDAb9hfrRLPAuD0PCNKbnrPDMmb47gwNDUkkEo1GgwiBEIJsS9Qxbo9wfCk8At8HAuygmGuaZyffR4vx71y0CNAAQw1IczscDqvVWlRUdO3atYGBgfHxcbPZTB/NrMrBR79cLtfpdLS4A1VEGn0e4GErQuwEtgpQDbjpgIsg1ghqgSe03AZ7BqwXXq/XaDQODg5KpVKj0QgjP0wsSGM1B4YQ2FqAADYVw3MCe4Igg8fjsVgsONVlYGAAEWbVajUioNhstv7+/oaGhrGxMfhe0EIPbDOgLDDksGaYAMFLkM5mJ0CYFc9ut/f19Wk0GjyEmQEIQ2DibQGSli+WR2AeEGAHxVzTPDuZhwbiX7F0EKABhiqRXscHuk6nQ3Qy2iZqtVphFYBiRn69Xl9RUdHW1ma1WumTGtoIBAVvCShqbEWoFtCO0Jd4Ow5+w95dMqVgoQd7bbxeL0K3gXNYrdZz586FhoY2Nzfj/AHaqgOlCx5mNpvhgIkyvV6vWq1GeDebzabX65HNarWq1erm5ubExMTIyMi9M1dzczPcoqVSaUhISFBQUG1tLVxKyT+XHHKxBQbWF1rDChCwBOlsdgK/EDAkVE2lUl25ckUikdDyB2RmWRTWsAIkLV8sj8A8IMAOirmmeXYyDw3Ev2LpIEADDFVi9ToULRwe8XGPPAi6SrHCpqamVCpVUlJSQ0MD1iBQCJQW0nhLQFFjK0K1AMeiGHFQ59j0i1UV7M41mUx6vR6uISaTCQ40Ho8HZR44cODDDz8sKyuDlQjaV6/XW61Wl8tlNpux+AK3Sthg4D4CboTQanR637lz50JCQjo6Otxud1dX1zPPPBMdHW0wGKxWa3d399atW//u7/4uMjLSarWSQwl7ECMEJnIQ0ECxBOlsdoJNTFi0Asi9vb3R0dFXrlzhOI5oExgqSMk89IGAdjC+cB4BjHF2XMwpzbMTvgvxCMwBARpd+A3pdSSgeCh6LBZE2H1A+D5WKBTR0dE1NTUsIyEhoM6pQHp+exNsRdha4By4qakpi8WCGGjku+r1euGqCaYyNTWFzSO0XoNtO2NjY+Pj43q9HgYkm81WXl7e2tpqMBiQAbVGEFhsD9ZoNCxKbrcbpyA1Nzdv27bt2LFjHMdZrVatVtvf36/RaLDqpFQqL126tHz58sTEROh1p9MJYxXsVVh1gu6Hq4fdbne5XLcXSSqNIJ3NToAwLdZ4vd7r16+HhoZWV1cTmNTuwIeK5RM8AosXAXZQzDXNs5PF2+685N8DAjTA8G5oHVInFEkCCShCfAqTE8bk5CTOKAY7ISdQ2qIJbcpuwQhEPdmK+LETfM0jgD0WGsgsZLfbOY6jOLDYfYMQ9TAa4XAcn8+HUBwOh6O7u/u1115LTU2FuQXUDcSFvGVhXiILB0Kxud3u0tLS119//dChQxAG7rRwZHG73SaTSSAQ3HfffXFxcWzcfeh7CpQyOTmJhSRaNAkEnn6fibNfgQ5AG44GBwdPnz4tEolgMaL1HRiNyMoyuxz+CY/AIkKA5plbSPDsZBE1NC/q948AjTGI4sdO4LFBdASOFOAudPLL9PS0SqU6d+4cNBP+yyonsvP7Pby9lWcrQuzEbDaLRKLw8PDo6GilUqlWq6urq6OioiIiIhCE1GazVVdX5+XldXR0jI6OlpaWxsXFiUSi4uJinP/c19cnFAozMjLa29utVqtMJjt69Ojf/u3ffvrpp8XFxX19fW63W6vVtrW1lZeXZ2RkJCcnl5eXG41GMB5sCYZLSldX1/79+5966ql33323uLi4qKgoJSXl+PHjubm5IyMjk5OTVqs1KSkJ7AQMyeFwdHV1VVZW5uTkpKamFhYW9vf3T01NIVYbMYPbiySVRpDe1HZC3sRYbBoeHj516lR1dTVoKEtGyfsnoB2AxOYTPAKBQ4AdFHNN8+wkcO3Cl7wEEaABhrqRXgelwFc7hcby+XxQVLRdFtFUx8fHz58/LxKJoC+xP4WKmh+dxFaEXq3T6S5evLh69epHHnnk+vXrY2NjUVFRL7zwwjPPPFNdXa3RaIxG4+nTp7/66qurV6/29PR89tlnjz766MGDB48dO/b222/v3bu3o6Njy5Yt//mf/5mcnOx0Ont7ez/55JOf/exnQUFBCQkJjY2NJpOpsrIyKysrNjb2yJEj77zzzqZNm0QiEewi5ONit9tramref//9FStWvPXWW/Hx8efOnTtw4MBdd921fft2OMZaLJb4+Pjly5cnJCRghUgqlYaGhsbHx4eFhQUFBW3cuDEyMhKBU8nzg9xTbnvvJEhnsxOKbgzTiNPpHBkZOXHixNWrV9Hc6CHgKLTdGu1y2+XkC+QRmDcE2EEx1zTPTuatmfgXLUEESK/D4wT7YxGvjGoL71EyqExPT4+OjsbFxTU0NGA/C9gJjCjsNzSVEIgEzRSsqWZqaqqxsTEoKGjlypUymczlconF4p07d65Zs6a1tRXrNRcuXEhKSnI4HCaTKSQk5Oc///m2bduqq6vb2tqKiopcLtfOnTufeuqpyMjIyclJjuNEItHdd9999uxZtVrt8XgGBwc3b96ckpLS399//fr1w4cP33vvvXv37rVarZOTk1jiQSQVl8t18eLFl156KSQkBCtlZrP5ySef/Oijj9ra2uCbkpycfN9998XExNhsttHR0UuXLm3atKm1tVWlUoWFhT399NPr1q2DwYb2ywSO/BGkfuwEzUeONTjOenR0NDw8HPYz9BDwJyIogZMzEN2JL5NH4KYIsINirmmendwUUv4hj8BtQwBrOlj0sdlsU1NTer2+tLS0vb19oZ0COD09bbVaBQLBT3/609zcXLlcznHcqVOn7r///tjYWJyJmJycXFhYCLePtLS0e++9Nzo6Gg4o8CM5ePDgf/zHf0RHR9tsNovFUl1d/Ytf/CIyMlKr1RqNxsLCwjvvvHP79u2ffvrpvn371q9ff8899zz99NMmkwmeK9j9C4aXmJi4du3aw4cPQ2c7HI7HH388KCgIxxVZLJbs7Oxly5YlJCQ4HI6KiopXXnll3bp1e/bs+fLLL995552HH3746aefFovFVquVyMFta9dZBbGTL/tPorBgIbaZS6FQ5OXlicVis9kM5kRuMfPGUFkh+TSPQCAQYAfFXNM8OwlEi/Bl8gj8LwTwHQyLPVSUXC43GAzsh/I8m/FppmBtJ/isr6mpWbVq1XvvvdfX13f58uXf//73a9eufe2116xWa3p6ek5OzuDgoNfr1el0aWlpDzzwQHR0tMlkolgjX3755dq1a2NjY2E7qa6uvuuuu2JiYgwGw8jISGxs7MqVK1tbW8fGxmQyWX9/f1dXV39/P/bXICYKWM7U1FRERMTzzz8PdjI5OanT6cBOmpqafD6f2Wz+9ttvf/GLX2DPTnl5+a9+9aucnBxEwxsaGurs7Lx+/ToOPaawK9/Lnh3UC00MI5nH4xkdHUWAHJ6d/K/Rwt8sIQRonrmFBM9OllBH4KuyIBGgrSi0lwTn4bERUOjzet5qQJMFy07g/TA6Onry5Mnly5fn5uaGh4d/8803x48fX758eWNj4+HDh69evWqz2bxer8FgyM7Ovu+++2AmwdLVjRs3vvjiC2InNputsbHx5z//+YULF3Q6nVQqjYqKeuCBB7q6ukBHECsFNiSK9uZ2u41Go9vtjo6OfvHFF7/++muEejMajU8++eSuXbuam5u9Xi/HcXFxcStWrIDtJC8v79FHH42Li1MqlbCUuN1uOsQYwVdwGyCQCVK/lR1qXGInqDU2byM0DhlO2D1cAZKTL5ZHYN4QYAfFXNM8O5m3ZuJf9ANFgIKVkWMBFBLCjvmprnnDiGYKlp3AvUOv19fX19999927du06ceJEUVFReXn5448//umnn544caKjowN8y2Kx5ObmLlu27Pz586gRzvzbu3fvmjVrLly44HK5jEZjc3PzsmXLIiIiJiYmFApFYmLiP/zDP8TFxWm1WpAhrVYrEonAeHCGDgLUer3eCxcuvPjii0eOHMG6GMdxTzzxRFBQkFgs9vl8FoslOTkZXrFut7usrOyJJ57YtGlTX1+f3W73eDxms7lv5kL8Nzi1BA5hgtSPneCN5F2EoC+IC4e90xSEDQl+ZSdwbcSXPM8IsINirmmencxzY/Gv+8EhgICwFO5ienra6XRyHIeYHwuKnUA2o9GoUqleeeWVZ5999vz583K5fGBgICgoaMWKFVlZWQqFAq4hJpMpKSnpgQceCA8Ph6kDNf3www+feeaZiIgIh8NhsVhkMtmDDz64b9++1tZWbFFetmzZq6++mpiYKBaLGxsbs7KyYmJizGYz9t3Q4YhOpzM0NHTVqlUHDhzAETxWq/XRRx/dvHlzXV2dz+czGAxRUVH33HNPbGysx+Pp6Oh4++2377rrrtDQ0CtXrtTV1RUUFCQlJbW0tOBsQlhrAhculp18Z/dyOj0HW4t9Ph/6AMw8RFBuusN8dmn8Ex6BRYEAOyjmmubZyaJoYl7IRYwARdbC8gTO0ZXJZDqdzo+azOc2DZop/GwnOByH47iwsLC33nrr8uXLbrdbpVLl5uY+8cQT7e3tOFrP5XLJ5fLTp0//27/9W0hIyNDQEJxFtFrttm3b/v3f//3bb781mUxwslm1atVrr70WFxcnkUjkcvmWLVuWL1/+8ssvf/jhh8HBwfv27ausrHS5XAh1jz23LpdLpVIdOHDg+eef379/v0qlslgsQ0NDq1ateuedd0pKSqxW6/j4+LFjxx588MEzZ86o1Wq5XH7x4sV77733qaee2rFjx6effvrJJ5+Eh4eD2ZC3h9PpDFBnIkhvajuBwQmR+xFm9/r16xMTE7RXixLoFQESki+WR2A+EWAHxVzTPDuZz5bi3/VDRACxTbGKgfULtVpdUFDQ2dlJ8U6IpswbQDRTsOwEn/XY0Ds4OFhaWjoyMgLeYDAYBAKBXq9HSHi1Wt3W1hYSEvLuu+8GBwfn5eUpFAqDwZCSkvL5559v3br10KFD9fX1Xq93YmLi+PHjQUFBX3/9dX19PZxbY2NjN2/evHHjxtOnTw8MDJhMJrPZDDSw8GE0Gq9fv37o0KGPP/44JCSktLRUo9GcOXMmODh49+7dFy9e7OjoEIlEp0+ffvPNNz///POrV68aDAaLxVJSUhIcHPzuu+/u37//6tWrOKoQTidYYgscwgTpTdkJ2UgQ+H9kZCQ5ObmpqQmBXtAByHAynzw1cIDwJfMIsINirmmenfD9h0cg4AiQqyPWPsbHx8+dO1ddXc2eAjjPX8w0U7DsBIoT1guc+osYrNCsHMeZzWaPxwMDgMvl0mg0Wq1Wp9PhED7YXbAwhIccx2FzDSK5cRxns9mwl0cikchkMo1Gw3Ecyp+enoa/MJ2kaDQaNRqNTqez2+0+n0+v109MTMjlcr1e73K5OI4zGAzKmctisUBgi8UyPj6uUCjUarXZbMZWHQSitdvt2NEdoPYmSP3YCQxIWFcC//N6vYODgxEREQ0NDURMyTFlnntCgNDgi+UR8DvegR0gf0qaZyd8F+IRCDgCiN6BL2OsieAUwIVmO0FIU6x90Dk1sPrgFtSEovKzecDAwDPIxwJOJHQ4otvthqkAL6LSkJ9YERZBsMUJb/d4PKw/Cpxw4boBjw24GHu9XvjDwosWhy2jNOfMBToYoPZmJ1z2FXT6ksfjcbvd4CNiaPgAAA5JSURBVF49PT2nT5+ura1l2QmbZkvg0zwCixQBdlDMNc2zk0Xa6LzYiwYBbBaFjoSiGh4evnjxokgkIgVMxpXvxaRPShE0AscDgRZg/whOfiFLDzx8cQs6QsH4wbcojgslKDo7FUg1xb/wHAQFhRAmeDtFoAfzQH5wHZxcg0C9+ItykAelAf/vpdPAdoKmh3gul6u7u/vMmTO1tbWzGSoh871Iy7+UR+A2IjBXRsLm59nJbWwIvigegZsgAAsBVCz23A4PD8fGxtbW1i4QdnIToflHtw8BYifoA6Apvb294eHh2HxE7BCJ2/dmviQege8ZAZZtzDXNs5PvufH41y95BChOKEwO09PTcrk8Li6uvr7e77t5yUPxw6wgrezAxQdGqaGhobCwsLq6Ohh4WILyw0SJr/WSRGCujITNz7OTJdkl+EotIATonB0KMoagZA0NDV6vdwEJyosSGARgO8GOIZ/P55i5EDa3trYWaz08OwkM9nyp3zMCLNuYa5pnJ99z4/GvX/IIQDnBiwJLOVarta6uTiKRLPm68xWkLVGs45HH49Hr9eXl5QMDAywv4Vd2+A6zxBCYKyNh8/PsZIl1Br46CxEB7CuB6yj2lKrVaqvVSg6hrHl/IVaAl+nPRoD6ABZ6sHXLbDbz7OTPhpYvYOEiwLKNuaZ5drJw25WXbGkgAFJC3idsVHUKag7LCjjK0qg1Xws/BLDVCJ5GOHEJ0WX8fI/4DTt+uPG3ixqBuTISNj/PThZ10/PCLwIE8HFMn84U+8Tr9fLsZBG0320SkQ5aopU+2mXtZz65TS/ki+ER+P4RYNnGXNM8O/n+24+XYGkjMFv3IFg77TRmMyxtKH7ItfNbvEPgOMSLYzsAbzv5IXeSpVf3uTISNj/PTpZef+BrtLAQwJoOYl1AG3EcNzY2ptfr2fNyKfw5dNX/VQdWkyEPPaFbvwQ5ZkLzkf5jf0gvpYTfr3D73Q/pvWzJsx/Sf/0SyEmvoFt6QvmpzNkJqiOboB+yie8o9jt+S7+iV7Nl/l/YUmg7nAQ5OTlpNpuHhoY0Gg3FuKOIdiiQrT6f5hFYpAiwbGOuaZ6dLNJG58VeNAjg8F64FyCGqVwuT0lJaWpqon0cOJACmu+7vU/Acij0OxsUFYjgZBkURRhRHDD2OcLDY1cznXRDQVmQk30RVC+tUKBwPIRTBZ6gpjj70E8ARL4nYZCA5maJ2mz1jEUQ8t1hX83WCAXiCTEM4EliEwlAhFmQA9ixUCwhQHFK8HaKQov1OGRGZHr2FSQbtSNaxOFwuFwupH0+X3d394ULF5qamli/E/aYYpTD/+URWNQIzJWRsPl5drKom54XfqEgwA4qP5nIKxZcxOfzKRSKmJgYimIOdUg+KPBHoXUfclhhi4X+hrZ2u90UVJ7NA1VNihMEAvHg4YTLKnuckweXCFaPko4n+sLyIUiOVyAnYuGzET5QGqqDJS2WqIGUoDpEU6go8Ay/k3tx4DCci3EeIXELvBfH2QBPnOwDDHGkAJqDzjyCNcvlciE/CnQ4HKARVH0gBm9WbAsHDpQTohLHIgY2NTUFBkNMFGcMdXR0hIaGikQiP9sJcRr0KLZB+TSPwKJDgJ0Y55rm2cmia25e4IWIADvw/OQjJkGEQ6lURkREVFVVEUsg+wpLJvBD6DkwCeRH+dDEXq8XKhNLBuwZNPghKUXywaRTaeCfi9LY4/qgp/F2kgG2EPZUHaI7pMhBVmAhIEnoxD4I4HA4ZouEEshyQJITsSOtf+PGDZg0SBLYY4jlEMkj3CjcGbu8Ar7idDpxUg9KA/g465gagmQgKkatMDU1hcriX6CJwBNMCIVQA4HBwGTV29sbGhpaW1uLPIQzbv26EH/LI7BIEWAnxrmmeXaySBudF3thIcAOPD/JSPORDlYqlWfOnLly5QopPFYxU5qsJrSyQPt9iGqAlOAVYDCk+/Fxj8N78bmPkqE4QWtorQEaFPob5dDCB+lpaF+6RTlkCCEhUSYsQNDfIFLumcvhcBBLgEpGNQEOGUvo52TqQPmQDTKAkYCFEEMi1oIf0rHALGJUpmvmYjGkYCSQDaUh2i8t4hCVRGaUjNoRi0JLUQVhIEGLoGoSiSQ0NLSmpoZd2UF+1nTk15f4Wx6BxYUAOzHONc2zk8XV1ry0CxQBduD5iQhtTYrH5/MplcqzZ89WVlYSD6B1AaIOMAn4UQ3Si2SZYDkEvunpRdDBbrfbbrc7HA5wC/wQGpFYwuTkJK2/YCkEFgWsd4AKkKKlW9aEQIyKuAJYEVkXnE6nw+GArYIoCBEdIijEG1Ag6WkiDU6nkypCG15IJGJ7KJBdA0JliT2gjWjdB/gAbdg22PqCnRCBQyh6WqsCO4EMgHd6epq1o+CWREL+wcHBb7/99urVq2TaYRvOrwvxtzwCixQBdmKca5pnJ4u00XmxFxYC7MDzkwzfzaQdPR6PXC6PiIgoKCjQarW2mcsyc9lsNmhcfGTD5GCz2SwWi9Vqtc9cNpsNaShCqHNsT9VoNFqt1mQycRxnsViMRqPVaqWvduREmRzH2Ww2FMhxnNFo1Ol0rLKHncA6c6E0i8ViMpl0Op3ZbAZ3mZqawjqLw+GA/BDMZrOZzWadTmcymcikAbbhcrnMZjPHcXa7HfUyGo0WiwVn0LD+Ik6n0zRzWa1WVBk54cMLDgQfF7vdbjabLRYLx3FWq9VoNJpMJrvdTk6sIEMul8tqtQJJktZsNttsNhALtNrk5KTNZkM1CR+LxWKz2QhJ0DK4jyAnwLRYLGq1WqlUEtkCW/L5fJDKZDJBTpPJJBaLQ0NDcUYxsStiY5AZfMWvO/G3PAKLCAF2Ypxrmmcni6iheVEXLgLswPOTEoYK2POhpMfGxiIiIsLDw/Py8goLC4VCYVZWVlFRUWNj4/DwMMdxcH1wuVwqlUosFhcUFGRmZgqFwqKiouKZq7W1dXJy0mKx0I4bhUJRUVGRl5dXMnMJhcLs7OyKioqhoSGbzQavEdCI69evIyfeXlBQkJOTU1FRIZfLQY/AdUwmU0tLy+XLl/Pz84VCYUlJSUFBQWlpaVtbm0qlgnftjRs3nE6nSqVqaGgQCoW5ubmFhYV5eXn5+fmlpaXt7e0mk4mCuzgcjuHh4bKysoyMDKFQWFhYmJ+fX1BQUFtbOz4+Dn8RGIc4jhsYGMCrCwsLCwoKcnNzhUJhXV3dxMQEQqzCnUWpVIrF4uLiYqFQWDBz5ebm5uTkXLt2TaVScRwHW5TFYpFKpXV1dYWFhTk5Obm5uVlZWUKhsKysrLOz02g0YuUL5Km3t7ekpCQ3N7e4uLigoAA56+rqxsbG4DTjcrkcDofBYOjp6cnLy8vNzS0qKiotLQXyIpGI4zjQMo/HAz5UUVGBiuTn5+fl5WVlZYWHhx85ckQkEoEIkuGEOs/sJ/QvPsEjsFgQYCfGuaZ5drJYWpmXc0EjwA48P0HJd4GWFTQaTV5eXlJSUlZWVmZmZnp6elpaWn5+fkNDw8jIiNPppAUOjUYjFovz8vJSZq6MjIysrKycnJzGxkav12s2m1Gmx+MZHx8vLS0VCARZWVnZ2dkCgSAzM7OsrKy/v5/jODCkyclJu93e1dVVUlIiEAjS09ORXyAQlJeXK5VKOIVg6cFutzc1NeXn52fMXAUFBenp6bm5uY2NjQqFgiwTDodDoVDU1tZmZGSkpqYic1ZWVnFxcWdnp81mI5uN0+mUSCSFhYWXLl1KS0uDnNnZ2WVlZRKJhJS0z+czm81dXV25ubnZ2dn4m5GRkZmZWVNTo1KpYOOB+UStVjc1NRUUFFDFMzMzs7KyOjs7tVotkJyamrLb7cPDwyKRKDc3Ny0tLTMzMy0tTSAQFBcXt7e3WywWGC1gOOnr6ysuLs7IyMjOzs7IyEhOTs7IyKiurh4ZGYH5BPt6TCZTT0+PUCjMzMzMycnJysoSCARCobCqqgqsCO4ssOuUlZUJhcKcnJzMzMyMjAyBQJCQkJCZmTk4OEiWGNZwwttO/AYRf7tIEWAnxrmmeXaySBudF3thIcAOPD/JSKXBywSuGHK5XCqVDv/PJZVKZTKZQqEgwgFrv8Ph0Gq1o6OjMplMKpUOzlxSqVStVsO+AiaBb3TkGR4els1cw8PDCoXCYDBgtzDMNm63W6fTjYyMUJ7h4WGJRCKTyWw2G5YkPB6P3W73+XxyuVwmk0kkksHBQcgwNDSkUqmwzAF7g9frtVgsSqVSJpMNDg6iQpAEQsLtxu12O51Og8GAAmUy2f9UfXh0dNRoNMLnAwK4XC6dTkfVGRkZkUqlEolkfHzcYrEgJ2xRdrt9YmKCcqLuIyMjer2eao01NavVCiGlUilVXyaTqdVqcmTBYplerx+auUZGRgCOVCpVKBRE8iCk2+02Go1oROSUSqX4ISoLaxA8WlAFyDk0NDQyMtLf3z8+Pm61Wv3YiV9QPj/K4te1+FsegQWOADsxzjXNs5MF3ri8eIsDAXbg+UkMdgK/TjI5YMWBPB4mJyfhN0p+J/QrygPnSmg7aFxa1kFpFHsD6pNcUmiTLbLRNhbIDE8UqElwHafTibNzaaEHmn56etrpdKIKPp8PayuQCi6iHo8HZXq9XrhiwBrh8/ngmQtXWeQBWwIhgGD0F3YR/IusPlD5cNRFFeCtAs9WooAwJpEnB4AiDkf44wkcdRGSBCjBm8RisbjdboTIQ8MBalqkI6nI5ZnCn+h0Otio8C+80TlzEf5AErLRPnMQEZ6d+A0f/nZRI8BOjHNNL1B2Mtdq8Pl5BHgEeAR4BHgEeASWDAI8O1kyTclXhEeAR4BHgEeAR2CJIMCzkyXSkHw1eAR4BHgEeAR4BJYMAjw7WTJNyVeER4BHgEeAR4BHYIkg8P8B+D5+LX4NV1kAAAAASUVORK5CYII=;" vertex="1" parent="1">
                    <mxGeometry x="-20" y="540" width="735" height="227" as="geometry"/>
                </mxCell>
            </root>
        </mxGraphModel>
    </diagram>
</mxfile>